G04 EAGLE Gerber RS-274X export*
G75*
%MOMM*%
%FSLAX34Y34*%
%LPD*%
%INBottom Copper*%
%IPPOS*%
%AMOC8*
5,1,8,0,0,1.08239X$1,22.5*%
G01*
G04 Define Apertures*
%ADD10C,0.150000*%
%ADD11C,0.452400*%
%ADD12C,0.502400*%
G36*
X1698773Y7822D02*
X1698476Y7762D01*
X903512Y7762D01*
X903237Y7813D01*
X902982Y7977D01*
X902810Y8227D01*
X902750Y8524D01*
X902750Y106139D01*
X901139Y107750D01*
X805639Y107750D01*
X805376Y107797D01*
X805117Y107956D01*
X804942Y108204D01*
X804877Y108500D01*
X804933Y108798D01*
X805100Y109051D01*
X841330Y145281D01*
X841330Y149724D01*
X836684Y154370D01*
X836307Y154370D01*
X836021Y154426D01*
X835769Y154593D01*
X832678Y157684D01*
X832515Y157926D01*
X832455Y158223D01*
X832455Y160046D01*
X830271Y162229D01*
X830113Y162460D01*
X830048Y162756D01*
X830103Y163054D01*
X830271Y163307D01*
X837154Y170189D01*
X837395Y170352D01*
X837692Y170413D01*
X854689Y170413D01*
X909195Y224918D01*
X909195Y464123D01*
X909242Y464386D01*
X909401Y464644D01*
X909649Y464820D01*
X909945Y464885D01*
X910243Y464829D01*
X910496Y464662D01*
X910560Y464598D01*
X913486Y464598D01*
X914774Y465887D01*
X915016Y466050D01*
X915313Y466110D01*
X1267484Y466110D01*
X1267747Y466063D01*
X1268005Y465904D01*
X1268180Y465656D01*
X1268246Y465360D01*
X1268190Y465062D01*
X1268022Y464809D01*
X1210003Y406790D01*
X1209762Y406627D01*
X1209465Y406567D01*
X1207642Y406567D01*
X1205573Y404498D01*
X1205573Y401572D01*
X1207642Y399503D01*
X1210568Y399503D01*
X1212637Y401572D01*
X1212637Y403395D01*
X1212693Y403681D01*
X1212860Y403933D01*
X1269966Y461039D01*
X1270208Y461202D01*
X1270505Y461263D01*
X1299994Y461263D01*
X1300280Y461207D01*
X1300533Y461039D01*
X1301822Y459751D01*
X1304748Y459751D01*
X1306932Y461934D01*
X1307162Y462092D01*
X1307458Y462157D01*
X1307756Y462102D01*
X1308009Y461934D01*
X1313528Y456415D01*
X1354009Y456415D01*
X1354295Y456359D01*
X1354548Y456192D01*
X1355057Y455683D01*
X1355220Y455442D01*
X1355280Y455144D01*
X1355280Y311481D01*
X1511435Y155326D01*
X1511598Y155084D01*
X1511658Y154787D01*
X1511658Y152965D01*
X1513727Y150896D01*
X1514857Y150896D01*
X1515143Y150840D01*
X1515396Y150672D01*
X1528874Y137194D01*
X1529037Y136952D01*
X1529098Y136655D01*
X1529098Y71848D01*
X1529042Y71562D01*
X1528874Y71309D01*
X1527586Y70021D01*
X1527586Y67095D01*
X1529655Y65026D01*
X1532581Y65026D01*
X1534650Y67095D01*
X1534650Y70021D01*
X1533361Y71309D01*
X1533198Y71551D01*
X1533138Y71848D01*
X1533138Y138644D01*
X1518945Y152837D01*
X1518782Y153078D01*
X1518722Y153375D01*
X1518722Y155891D01*
X1516653Y157960D01*
X1514830Y157960D01*
X1514544Y158015D01*
X1514292Y158183D01*
X1359543Y312931D01*
X1359380Y313173D01*
X1359320Y313470D01*
X1359320Y455144D01*
X1359376Y455430D01*
X1359543Y455683D01*
X1360832Y456972D01*
X1360832Y459898D01*
X1358763Y461967D01*
X1355837Y461967D01*
X1354548Y460678D01*
X1354307Y460515D01*
X1354009Y460455D01*
X1315517Y460455D01*
X1315231Y460511D01*
X1314979Y460678D01*
X1305507Y470150D01*
X915313Y470150D01*
X915027Y470206D01*
X914774Y470373D01*
X913486Y471662D01*
X910560Y471662D01*
X910496Y471598D01*
X910276Y471445D01*
X909981Y471376D01*
X909682Y471426D01*
X909427Y471590D01*
X909255Y471840D01*
X909195Y472137D01*
X909195Y991804D01*
X834755Y1066244D01*
X834592Y1066486D01*
X834532Y1066783D01*
X834532Y1068606D01*
X832463Y1070675D01*
X829537Y1070675D01*
X827468Y1068606D01*
X827468Y1065680D01*
X829537Y1063611D01*
X831360Y1063611D01*
X831646Y1063555D01*
X831898Y1063387D01*
X904932Y990354D01*
X905095Y990112D01*
X905155Y989815D01*
X905155Y652819D01*
X905108Y652556D01*
X904949Y652297D01*
X904701Y652122D01*
X904405Y652057D01*
X904107Y652113D01*
X903854Y652280D01*
X881004Y675130D01*
X226276Y675130D01*
X225990Y675186D01*
X225737Y675353D01*
X224448Y676642D01*
X221522Y676642D01*
X219453Y674573D01*
X219453Y671647D01*
X221522Y669578D01*
X224448Y669578D01*
X225737Y670867D01*
X225978Y671030D01*
X226276Y671090D01*
X874775Y671090D01*
X875039Y671043D01*
X875297Y670884D01*
X875472Y670636D01*
X875537Y670340D01*
X875482Y670042D01*
X875314Y669789D01*
X875251Y669726D01*
X875251Y666800D01*
X876539Y665511D01*
X876702Y665269D01*
X876763Y664972D01*
X876763Y664656D01*
X890483Y650935D01*
X890636Y650716D01*
X890706Y650421D01*
X890655Y650122D01*
X890492Y649866D01*
X890241Y649695D01*
X889944Y649635D01*
X889092Y649635D01*
X887803Y648346D01*
X887562Y648183D01*
X887264Y648123D01*
X803845Y648123D01*
X803581Y648169D01*
X803323Y648329D01*
X803148Y648576D01*
X803083Y648872D01*
X803138Y649170D01*
X803306Y649423D01*
X803370Y649487D01*
X803370Y652413D01*
X801301Y654482D01*
X798375Y654482D01*
X797086Y653193D01*
X796844Y653030D01*
X796547Y652970D01*
X244973Y652970D01*
X244687Y653026D01*
X244434Y653193D01*
X243146Y654482D01*
X240220Y654482D01*
X238151Y652413D01*
X238151Y649487D01*
X238214Y649423D01*
X238367Y649204D01*
X238437Y648909D01*
X238386Y648610D01*
X238223Y648354D01*
X237973Y648183D01*
X237675Y648123D01*
X213146Y648123D01*
X185648Y620624D01*
X185648Y590558D01*
X187054Y589152D01*
X234102Y542104D01*
X234260Y541874D01*
X234325Y541578D01*
X234269Y541279D01*
X234102Y541027D01*
X232698Y539623D01*
X232457Y539460D01*
X232159Y539400D01*
X175747Y539400D01*
X175484Y539447D01*
X175226Y539606D01*
X175050Y539854D01*
X174985Y540150D01*
X175041Y540448D01*
X175208Y540701D01*
X177350Y542842D01*
X177350Y545768D01*
X175281Y547837D01*
X173458Y547837D01*
X173172Y547893D01*
X172919Y548060D01*
X41716Y679264D01*
X41553Y679505D01*
X41493Y679802D01*
X41493Y804857D01*
X41548Y805143D01*
X41716Y805396D01*
X43005Y806685D01*
X43005Y809611D01*
X40821Y811794D01*
X40663Y812025D01*
X40598Y812321D01*
X40653Y812619D01*
X40821Y812872D01*
X41493Y813543D01*
X41493Y935047D01*
X41548Y935333D01*
X41716Y935586D01*
X43005Y936875D01*
X43005Y939801D01*
X40936Y941870D01*
X38010Y941870D01*
X35941Y939801D01*
X35941Y936875D01*
X37229Y935586D01*
X37392Y935344D01*
X37453Y935047D01*
X37453Y815532D01*
X37397Y815246D01*
X37229Y814994D01*
X32605Y810369D01*
X32605Y677121D01*
X90425Y619301D01*
X90588Y619059D01*
X90648Y618762D01*
X90648Y616247D01*
X92717Y614178D01*
X94540Y614178D01*
X94826Y614122D01*
X95078Y613955D01*
X125756Y583278D01*
X125914Y583047D01*
X125979Y582751D01*
X125923Y582453D01*
X125756Y582200D01*
X68833Y525277D01*
X68613Y525124D01*
X68318Y525054D01*
X68019Y525105D01*
X67764Y525269D01*
X67592Y525519D01*
X67532Y525816D01*
X67532Y638344D01*
X65914Y639962D01*
X3524Y639962D01*
X3249Y640013D01*
X2994Y640177D01*
X2822Y640427D01*
X2762Y640724D01*
X2762Y1113476D01*
X2813Y1113751D01*
X2977Y1114006D01*
X3227Y1114178D01*
X3524Y1114238D01*
X193326Y1114238D01*
X193601Y1114187D01*
X193856Y1114023D01*
X194028Y1113773D01*
X194088Y1113476D01*
X194088Y1103756D01*
X195706Y1102138D01*
X684404Y1102138D01*
X686022Y1103756D01*
X686022Y1113476D01*
X686073Y1113751D01*
X686237Y1114006D01*
X686487Y1114178D01*
X686784Y1114238D01*
X918476Y1114238D01*
X918751Y1114187D01*
X919006Y1114023D01*
X919178Y1113773D01*
X919238Y1113476D01*
X919238Y675856D01*
X920856Y674238D01*
X1698476Y674238D01*
X1698751Y674187D01*
X1699006Y674023D01*
X1699178Y673773D01*
X1699238Y673476D01*
X1699238Y8524D01*
X1699187Y8249D01*
X1699023Y7994D01*
X1698773Y7822D01*
G37*
%LPC*%
G36*
X245067Y758218D02*
X247993Y758218D01*
X250062Y760287D01*
X250062Y763213D01*
X248773Y764502D01*
X248610Y764743D01*
X248550Y765041D01*
X248550Y887325D01*
X248606Y887611D01*
X248773Y887864D01*
X446457Y1085547D01*
X446698Y1085710D01*
X446995Y1085771D01*
X448818Y1085771D01*
X450887Y1087840D01*
X450887Y1090766D01*
X448818Y1092835D01*
X445892Y1092835D01*
X443823Y1090766D01*
X443823Y1088943D01*
X443767Y1088657D01*
X443600Y1088404D01*
X244510Y889314D01*
X244510Y765041D01*
X244454Y764755D01*
X244287Y764502D01*
X242998Y763213D01*
X242998Y760287D01*
X245067Y758218D01*
G37*
G36*
X240220Y726363D02*
X243146Y726363D01*
X245215Y728432D01*
X245215Y730255D01*
X245270Y730541D01*
X245438Y730793D01*
X598807Y1084162D01*
X599048Y1084325D01*
X599345Y1084386D01*
X601168Y1084386D01*
X603237Y1086455D01*
X603237Y1089381D01*
X601168Y1091450D01*
X598242Y1091450D01*
X596173Y1089381D01*
X596173Y1087558D01*
X596117Y1087272D01*
X595950Y1087019D01*
X242581Y733650D01*
X242339Y733487D01*
X242042Y733427D01*
X240220Y733427D01*
X238151Y731358D01*
X238151Y728432D01*
X240220Y726363D01*
G37*
G36*
X162660Y571243D02*
X165586Y571243D01*
X167655Y573312D01*
X167655Y575329D01*
X167706Y575603D01*
X167869Y575859D01*
X168119Y576030D01*
X168417Y576091D01*
X170433Y576091D01*
X172502Y578160D01*
X172502Y581086D01*
X171213Y582374D01*
X171050Y582616D01*
X170990Y582913D01*
X170990Y770232D01*
X171046Y770518D01*
X171213Y770771D01*
X172502Y772060D01*
X172502Y774986D01*
X170433Y777055D01*
X167507Y777055D01*
X167443Y776991D01*
X167224Y776838D01*
X166929Y776768D01*
X166630Y776819D01*
X166374Y776982D01*
X166203Y777232D01*
X166143Y777530D01*
X166143Y840235D01*
X166198Y840521D01*
X166366Y840774D01*
X343274Y1017682D01*
X343516Y1017845D01*
X343813Y1017906D01*
X344943Y1017906D01*
X347012Y1019975D01*
X347012Y1022901D01*
X344943Y1024970D01*
X343120Y1024970D01*
X342834Y1025025D01*
X342582Y1025193D01*
X285603Y1082172D01*
X285440Y1082413D01*
X285380Y1082710D01*
X285380Y1084533D01*
X283311Y1086602D01*
X280385Y1086602D01*
X278316Y1084533D01*
X278316Y1081607D01*
X280385Y1079538D01*
X282207Y1079538D01*
X282493Y1079482D01*
X282746Y1079315D01*
X339725Y1022336D01*
X339888Y1022094D01*
X339948Y1021797D01*
X339948Y1020385D01*
X339892Y1020099D01*
X339725Y1019847D01*
X162103Y842224D01*
X162103Y578066D01*
X162047Y577780D01*
X161879Y577527D01*
X160591Y576238D01*
X160591Y573312D01*
X162660Y571243D01*
G37*
G36*
X110722Y994361D02*
X113648Y994361D01*
X115717Y996430D01*
X115717Y999356D01*
X113648Y1001425D01*
X111825Y1001425D01*
X111539Y1001480D01*
X111287Y1001648D01*
X89625Y1023309D01*
X89462Y1023551D01*
X89402Y1023848D01*
X89402Y1025671D01*
X87333Y1027740D01*
X84407Y1027740D01*
X82338Y1025671D01*
X82338Y1022745D01*
X84407Y1020676D01*
X86230Y1020676D01*
X86516Y1020620D01*
X86768Y1020452D01*
X108430Y998791D01*
X108593Y998549D01*
X108653Y998252D01*
X108653Y996430D01*
X110722Y994361D01*
G37*
G36*
X142433Y752218D02*
X145567Y752218D01*
X147782Y754433D01*
X147782Y757567D01*
X145567Y759782D01*
X142433Y759782D01*
X140218Y757567D01*
X140218Y754433D01*
X142433Y752218D01*
G37*
G36*
X124433Y752218D02*
X127567Y752218D01*
X129782Y754433D01*
X129782Y757567D01*
X127567Y759782D01*
X124433Y759782D01*
X122218Y757567D01*
X122218Y754433D01*
X124433Y752218D01*
G37*
G36*
X106433Y752218D02*
X109567Y752218D01*
X111782Y754433D01*
X111782Y757567D01*
X109567Y759782D01*
X106433Y759782D01*
X104218Y757567D01*
X104218Y754433D01*
X106433Y752218D01*
G37*
G36*
X88433Y752218D02*
X91567Y752218D01*
X93782Y754433D01*
X93782Y757567D01*
X91567Y759782D01*
X88433Y759782D01*
X86218Y757567D01*
X86218Y754433D01*
X88433Y752218D01*
G37*
G36*
X70433Y752218D02*
X73567Y752218D01*
X75782Y754433D01*
X75782Y757567D01*
X73567Y759782D01*
X70433Y759782D01*
X68218Y757567D01*
X68218Y754433D01*
X70433Y752218D01*
G37*
G36*
X52433Y752218D02*
X55567Y752218D01*
X57782Y754433D01*
X57782Y757567D01*
X55567Y759782D01*
X52433Y759782D01*
X50218Y757567D01*
X50218Y754433D01*
X52433Y752218D01*
G37*
G36*
X70433Y734218D02*
X73567Y734218D01*
X75782Y736433D01*
X75782Y739567D01*
X73567Y741782D01*
X70433Y741782D01*
X68218Y739567D01*
X68218Y736433D01*
X70433Y734218D01*
G37*
G36*
X52433Y734218D02*
X55567Y734218D01*
X57782Y736433D01*
X57782Y739567D01*
X55567Y741782D01*
X52433Y741782D01*
X50218Y739567D01*
X50218Y736433D01*
X52433Y734218D01*
G37*
G36*
X142433Y734218D02*
X145567Y734218D01*
X147782Y736433D01*
X147782Y739567D01*
X145567Y741782D01*
X142433Y741782D01*
X140218Y739567D01*
X140218Y736433D01*
X142433Y734218D01*
G37*
G36*
X124433Y734218D02*
X127567Y734218D01*
X129782Y736433D01*
X129782Y739567D01*
X127567Y741782D01*
X124433Y741782D01*
X122218Y739567D01*
X122218Y736433D01*
X124433Y734218D01*
G37*
G36*
X106433Y734218D02*
X109567Y734218D01*
X111782Y736433D01*
X111782Y739567D01*
X109567Y741782D01*
X106433Y741782D01*
X104218Y739567D01*
X104218Y736433D01*
X106433Y734218D01*
G37*
G36*
X88433Y734218D02*
X91567Y734218D01*
X93782Y736433D01*
X93782Y739567D01*
X91567Y741782D01*
X88433Y741782D01*
X86218Y739567D01*
X86218Y736433D01*
X88433Y734218D01*
G37*
G36*
X142433Y716218D02*
X145567Y716218D01*
X147782Y718433D01*
X147782Y721567D01*
X145567Y723782D01*
X142433Y723782D01*
X140218Y721567D01*
X140218Y718433D01*
X142433Y716218D01*
G37*
G36*
X124433Y716218D02*
X127567Y716218D01*
X129782Y718433D01*
X129782Y721567D01*
X127567Y723782D01*
X124433Y723782D01*
X122218Y721567D01*
X122218Y718433D01*
X124433Y716218D01*
G37*
G36*
X106433Y716218D02*
X109567Y716218D01*
X111782Y718433D01*
X111782Y721567D01*
X109567Y723782D01*
X106433Y723782D01*
X104218Y721567D01*
X104218Y718433D01*
X106433Y716218D01*
G37*
G36*
X88433Y716218D02*
X91567Y716218D01*
X93782Y718433D01*
X93782Y721567D01*
X91567Y723782D01*
X88433Y723782D01*
X86218Y721567D01*
X86218Y718433D01*
X88433Y716218D01*
G37*
G36*
X70433Y716218D02*
X73567Y716218D01*
X75782Y718433D01*
X75782Y721567D01*
X73567Y723782D01*
X70433Y723782D01*
X68218Y721567D01*
X68218Y718433D01*
X70433Y716218D01*
G37*
G36*
X52433Y716218D02*
X55567Y716218D01*
X57782Y718433D01*
X57782Y721567D01*
X55567Y723782D01*
X52433Y723782D01*
X50218Y721567D01*
X50218Y718433D01*
X52433Y716218D01*
G37*
G36*
X70433Y698218D02*
X73567Y698218D01*
X75782Y700433D01*
X75782Y703567D01*
X73567Y705782D01*
X70433Y705782D01*
X68218Y703567D01*
X68218Y700433D01*
X70433Y698218D01*
G37*
G36*
X52433Y698218D02*
X55567Y698218D01*
X57782Y700433D01*
X57782Y703567D01*
X55567Y705782D01*
X52433Y705782D01*
X50218Y703567D01*
X50218Y700433D01*
X52433Y698218D01*
G37*
G36*
X142433Y698218D02*
X145567Y698218D01*
X147782Y700433D01*
X147782Y703567D01*
X145567Y705782D01*
X142433Y705782D01*
X140218Y703567D01*
X140218Y700433D01*
X142433Y698218D01*
G37*
G36*
X124433Y698218D02*
X127567Y698218D01*
X129782Y700433D01*
X129782Y703567D01*
X127567Y705782D01*
X124433Y705782D01*
X122218Y703567D01*
X122218Y700433D01*
X124433Y698218D01*
G37*
G36*
X106433Y698218D02*
X109567Y698218D01*
X111782Y700433D01*
X111782Y703567D01*
X109567Y705782D01*
X106433Y705782D01*
X104218Y703567D01*
X104218Y700433D01*
X106433Y698218D01*
G37*
G36*
X88433Y698218D02*
X91567Y698218D01*
X93782Y700433D01*
X93782Y703567D01*
X91567Y705782D01*
X88433Y705782D01*
X86218Y703567D01*
X86218Y700433D01*
X88433Y698218D01*
G37*
G36*
X142433Y680218D02*
X145567Y680218D01*
X147782Y682433D01*
X147782Y685567D01*
X145567Y687782D01*
X142433Y687782D01*
X140218Y685567D01*
X140218Y682433D01*
X142433Y680218D01*
G37*
G36*
X124433Y680218D02*
X127567Y680218D01*
X129782Y682433D01*
X129782Y685567D01*
X127567Y687782D01*
X124433Y687782D01*
X122218Y685567D01*
X122218Y682433D01*
X124433Y680218D01*
G37*
G36*
X106433Y680218D02*
X109567Y680218D01*
X111782Y682433D01*
X111782Y685567D01*
X109567Y687782D01*
X106433Y687782D01*
X104218Y685567D01*
X104218Y682433D01*
X106433Y680218D01*
G37*
G36*
X88433Y680218D02*
X91567Y680218D01*
X93782Y682433D01*
X93782Y685567D01*
X91567Y687782D01*
X88433Y687782D01*
X86218Y685567D01*
X86218Y682433D01*
X88433Y680218D01*
G37*
G36*
X70433Y680218D02*
X73567Y680218D01*
X75782Y682433D01*
X75782Y685567D01*
X73567Y687782D01*
X70433Y687782D01*
X68218Y685567D01*
X68218Y682433D01*
X70433Y680218D01*
G37*
G36*
X52433Y680218D02*
X55567Y680218D01*
X57782Y682433D01*
X57782Y685567D01*
X55567Y687782D01*
X52433Y687782D01*
X50218Y685567D01*
X50218Y682433D01*
X52433Y680218D01*
G37*
G36*
X1544890Y67103D02*
X1547816Y67103D01*
X1549885Y69172D01*
X1549885Y72098D01*
X1548596Y73387D01*
X1548433Y73628D01*
X1548373Y73926D01*
X1548373Y120035D01*
X1548428Y120321D01*
X1548596Y120574D01*
X1549609Y121587D01*
X1549851Y121750D01*
X1550148Y121811D01*
X1551278Y121811D01*
X1553347Y123880D01*
X1553347Y125010D01*
X1553403Y125296D01*
X1553570Y125548D01*
X1641712Y213690D01*
X1641953Y213853D01*
X1642250Y213913D01*
X1643381Y213913D01*
X1645450Y215982D01*
X1645450Y218908D01*
X1643381Y220977D01*
X1641558Y220977D01*
X1641272Y221033D01*
X1641019Y221200D01*
X1370403Y491817D01*
X1370250Y492036D01*
X1370180Y492331D01*
X1370231Y492630D01*
X1370394Y492886D01*
X1370644Y493057D01*
X1370941Y493118D01*
X1475197Y493118D01*
X1475483Y493062D01*
X1475736Y492894D01*
X1477025Y491606D01*
X1479951Y491606D01*
X1482020Y493675D01*
X1482020Y496601D01*
X1479951Y498670D01*
X1477025Y498670D01*
X1475736Y497381D01*
X1475494Y497218D01*
X1475197Y497158D01*
X1371610Y497158D01*
X1371324Y497213D01*
X1371071Y497381D01*
X1361400Y507052D01*
X1361247Y507271D01*
X1361177Y507566D01*
X1361228Y507865D01*
X1361392Y508121D01*
X1361642Y508292D01*
X1361939Y508353D01*
X1486969Y508353D01*
X1487255Y508297D01*
X1487508Y508129D01*
X1488797Y506841D01*
X1491723Y506841D01*
X1493792Y508910D01*
X1493792Y511836D01*
X1491723Y513905D01*
X1488797Y513905D01*
X1487508Y512616D01*
X1487267Y512453D01*
X1486969Y512393D01*
X1362607Y512393D01*
X1362321Y512448D01*
X1362069Y512616D01*
X1229480Y645204D01*
X1229317Y645446D01*
X1229257Y645743D01*
X1229257Y647566D01*
X1227188Y649635D01*
X1224262Y649635D01*
X1222078Y647451D01*
X1221848Y647293D01*
X1221552Y647228D01*
X1221254Y647283D01*
X1221001Y647451D01*
X1205935Y662517D01*
X1205772Y662758D01*
X1205712Y663055D01*
X1205712Y664878D01*
X1203643Y666947D01*
X1200717Y666947D01*
X1198648Y664878D01*
X1198648Y661952D01*
X1200717Y659883D01*
X1202540Y659883D01*
X1202826Y659827D01*
X1203078Y659660D01*
X1351104Y511634D01*
X1351262Y511404D01*
X1351327Y511108D01*
X1351272Y510809D01*
X1351104Y510557D01*
X1349701Y509153D01*
X1349459Y508990D01*
X1349162Y508930D01*
X922238Y508930D01*
X921952Y508986D01*
X921699Y509153D01*
X920411Y510442D01*
X917485Y510442D01*
X915416Y508373D01*
X915416Y505447D01*
X917485Y503378D01*
X920411Y503378D01*
X921699Y504667D01*
X921941Y504830D01*
X922238Y504890D01*
X1349162Y504890D01*
X1349448Y504834D01*
X1349701Y504667D01*
X1350990Y503378D01*
X1352812Y503378D01*
X1353098Y503322D01*
X1353351Y503155D01*
X1638162Y218343D01*
X1638325Y218102D01*
X1638386Y217805D01*
X1638386Y216393D01*
X1638330Y216107D01*
X1638162Y215854D01*
X1551406Y129098D01*
X1551164Y128935D01*
X1550867Y128875D01*
X1548352Y128875D01*
X1546283Y126806D01*
X1546283Y124290D01*
X1546227Y124004D01*
X1546060Y123752D01*
X1544333Y122024D01*
X1544333Y73926D01*
X1544277Y73640D01*
X1544109Y73387D01*
X1542821Y72098D01*
X1542821Y69172D01*
X1544890Y67103D01*
G37*
G36*
X1652413Y569917D02*
X1656762Y569917D01*
X1659837Y572992D01*
X1659837Y577342D01*
X1656762Y580417D01*
X1652413Y580417D01*
X1649337Y577342D01*
X1649337Y572992D01*
X1652413Y569917D01*
G37*
G36*
X1515112Y497146D02*
X1518038Y497146D01*
X1519327Y498434D01*
X1519568Y498597D01*
X1519866Y498658D01*
X1585277Y498658D01*
X1627169Y540550D01*
X1627411Y540713D01*
X1627708Y540773D01*
X1629531Y540773D01*
X1630299Y541541D01*
X1630529Y541699D01*
X1630825Y541764D01*
X1631123Y541709D01*
X1631376Y541541D01*
X1632837Y540081D01*
X1635763Y540081D01*
X1637832Y542150D01*
X1637832Y545076D01*
X1636543Y546364D01*
X1636380Y546606D01*
X1636320Y546903D01*
X1636320Y550017D01*
X1636376Y550303D01*
X1636543Y550556D01*
X1637832Y551845D01*
X1637832Y554771D01*
X1636718Y555885D01*
X1636560Y556115D01*
X1636494Y556412D01*
X1636550Y556710D01*
X1636718Y556963D01*
X1637832Y558077D01*
X1637832Y561003D01*
X1635763Y563072D01*
X1632837Y563072D01*
X1630768Y561003D01*
X1630768Y559180D01*
X1630712Y558894D01*
X1630545Y558642D01*
X1594214Y522311D01*
X1593972Y522148D01*
X1593675Y522088D01*
X1488011Y522088D01*
X1487725Y522143D01*
X1487472Y522311D01*
X1486183Y523600D01*
X1483257Y523600D01*
X1481188Y521531D01*
X1481188Y518605D01*
X1483257Y516536D01*
X1486183Y516536D01*
X1487472Y517824D01*
X1487713Y517987D01*
X1488011Y518048D01*
X1595664Y518048D01*
X1623235Y545618D01*
X1623454Y545771D01*
X1623749Y545841D01*
X1624048Y545790D01*
X1624304Y545627D01*
X1624475Y545376D01*
X1624536Y545079D01*
X1624536Y543945D01*
X1624480Y543659D01*
X1624312Y543407D01*
X1583826Y502921D01*
X1583585Y502758D01*
X1583288Y502698D01*
X1519866Y502698D01*
X1519580Y502753D01*
X1519327Y502921D01*
X1518038Y504210D01*
X1515112Y504210D01*
X1513043Y502141D01*
X1513043Y499215D01*
X1515112Y497146D01*
G37*
G36*
X1652413Y512117D02*
X1656762Y512117D01*
X1659837Y515192D01*
X1659837Y519542D01*
X1656762Y522617D01*
X1652413Y522617D01*
X1649337Y519542D01*
X1649337Y515192D01*
X1652413Y512117D01*
G37*
G36*
X1177172Y484681D02*
X1180098Y484681D01*
X1181387Y485969D01*
X1181628Y486132D01*
X1181926Y486193D01*
X1243902Y486193D01*
X1244188Y486137D01*
X1244441Y485969D01*
X1245730Y484681D01*
X1248656Y484681D01*
X1250725Y486750D01*
X1250725Y489676D01*
X1248656Y491745D01*
X1245730Y491745D01*
X1244441Y490456D01*
X1244199Y490293D01*
X1243902Y490233D01*
X1181926Y490233D01*
X1181640Y490288D01*
X1181387Y490456D01*
X1180098Y491745D01*
X1177172Y491745D01*
X1175103Y489676D01*
X1175103Y486750D01*
X1177172Y484681D01*
G37*
G36*
X1498492Y116963D02*
X1501418Y116963D01*
X1503487Y119032D01*
X1503487Y121958D01*
X1501418Y124027D01*
X1499595Y124027D01*
X1499309Y124083D01*
X1499057Y124250D01*
X1231409Y391898D01*
X1151456Y391898D01*
X1151170Y391953D01*
X1150917Y392121D01*
X1149628Y393410D01*
X1146702Y393410D01*
X1144633Y391341D01*
X1144633Y388415D01*
X1146702Y386346D01*
X1149628Y386346D01*
X1150917Y387634D01*
X1151158Y387797D01*
X1151456Y387858D01*
X1229420Y387858D01*
X1229706Y387802D01*
X1229959Y387634D01*
X1496200Y121393D01*
X1496363Y121152D01*
X1496423Y120855D01*
X1496423Y119032D01*
X1498492Y116963D01*
G37*
G36*
X1180635Y362108D02*
X1183561Y362108D01*
X1185630Y364177D01*
X1185630Y367103D01*
X1184485Y368248D01*
X1184327Y368478D01*
X1184262Y368775D01*
X1184317Y369073D01*
X1184485Y369325D01*
X1192972Y377812D01*
X1193213Y377975D01*
X1193510Y378036D01*
X1195333Y378036D01*
X1197402Y380105D01*
X1197402Y383031D01*
X1195333Y385100D01*
X1192407Y385100D01*
X1190338Y383031D01*
X1190338Y381208D01*
X1190282Y380922D01*
X1190115Y380669D01*
X1180078Y370632D01*
X1180078Y368931D01*
X1180022Y368645D01*
X1179854Y368392D01*
X1178566Y367103D01*
X1178566Y364177D01*
X1180635Y362108D01*
G37*
%LPD*%
G36*
X1631826Y546230D02*
X1631530Y546165D01*
X1631232Y546221D01*
X1630979Y546388D01*
X1629531Y547837D01*
X1627293Y547837D01*
X1627030Y547884D01*
X1626772Y548043D01*
X1626597Y548291D01*
X1626531Y548587D01*
X1626587Y548885D01*
X1626755Y549138D01*
X1629576Y551959D01*
X1629806Y552117D01*
X1630103Y552182D01*
X1630401Y552127D01*
X1630653Y551959D01*
X1632057Y550556D01*
X1632220Y550314D01*
X1632280Y550017D01*
X1632280Y546927D01*
X1632233Y546664D01*
X1632074Y546406D01*
X1631826Y546230D01*
G37*
G36*
X901931Y645890D02*
X901635Y645824D01*
X901337Y645880D01*
X901084Y646048D01*
X881862Y665270D01*
X881704Y665500D01*
X881639Y665796D01*
X881695Y666094D01*
X881862Y666347D01*
X882429Y666914D01*
X882660Y667072D01*
X882956Y667137D01*
X883254Y667082D01*
X883507Y666914D01*
X902162Y648259D01*
X902325Y648017D01*
X902385Y647720D01*
X902385Y646586D01*
X902338Y646323D01*
X902179Y646065D01*
X901931Y645890D01*
G37*
G36*
X895168Y644697D02*
X894873Y644628D01*
X894574Y644678D01*
X894319Y644842D01*
X894147Y645092D01*
X894087Y645389D01*
X894087Y645492D01*
X894134Y645755D01*
X894293Y646013D01*
X894540Y646188D01*
X894837Y646254D01*
X895135Y646198D01*
X895388Y646031D01*
X895439Y645979D01*
X895597Y645749D01*
X895662Y645453D01*
X895607Y645154D01*
X895439Y644902D01*
X895388Y644850D01*
X895168Y644697D01*
G37*
G36*
X891586Y610590D02*
X891290Y610525D01*
X890992Y610581D01*
X890739Y610748D01*
X888556Y612932D01*
X886733Y612932D01*
X886447Y612988D01*
X886194Y613155D01*
X874079Y625270D01*
X314223Y625270D01*
X313937Y625326D01*
X313684Y625493D01*
X312396Y626782D01*
X309470Y626782D01*
X307401Y624713D01*
X307401Y621787D01*
X307464Y621723D01*
X307617Y621504D01*
X307687Y621209D01*
X307636Y620910D01*
X307473Y620654D01*
X307223Y620483D01*
X306925Y620423D01*
X195806Y620423D01*
X195520Y620478D01*
X195267Y620646D01*
X193863Y622049D01*
X193705Y622280D01*
X193640Y622576D01*
X193696Y622874D01*
X193863Y623127D01*
X214596Y643859D01*
X214838Y644022D01*
X215135Y644083D01*
X224518Y644083D01*
X224781Y644036D01*
X225039Y643876D01*
X225215Y643629D01*
X225280Y643333D01*
X225224Y643035D01*
X225057Y642782D01*
X224993Y642718D01*
X224993Y639792D01*
X227062Y637723D01*
X229988Y637723D01*
X231277Y639012D01*
X231518Y639175D01*
X231816Y639235D01*
X893497Y639235D01*
X893783Y639179D01*
X894036Y639012D01*
X895325Y637723D01*
X898251Y637723D01*
X898314Y637787D01*
X898534Y637940D01*
X898829Y638010D01*
X899128Y637959D01*
X899383Y637795D01*
X899555Y637545D01*
X899615Y637248D01*
X899615Y618862D01*
X899559Y618576D01*
X899392Y618324D01*
X891817Y610748D01*
X891586Y610590D01*
G37*
G36*
X877001Y503295D02*
X876705Y503230D01*
X876407Y503286D01*
X876154Y503453D01*
X876091Y503517D01*
X874268Y503517D01*
X873982Y503573D01*
X873729Y503740D01*
X757540Y619929D01*
X757387Y620149D01*
X757317Y620444D01*
X757368Y620743D01*
X757532Y620998D01*
X757782Y621170D01*
X758079Y621230D01*
X872090Y621230D01*
X872376Y621174D01*
X872629Y621007D01*
X883337Y610298D01*
X883500Y610057D01*
X883561Y609760D01*
X883561Y607937D01*
X885744Y605753D01*
X885902Y605523D01*
X885967Y605227D01*
X885912Y604929D01*
X885744Y604676D01*
X865818Y584749D01*
X865587Y584591D01*
X865291Y584526D01*
X864993Y584582D01*
X864740Y584749D01*
X858993Y590497D01*
X858830Y590738D01*
X858770Y591035D01*
X858770Y592858D01*
X856701Y594927D01*
X853775Y594927D01*
X851706Y592858D01*
X851706Y589932D01*
X853775Y587863D01*
X855597Y587863D01*
X855883Y587807D01*
X856136Y587640D01*
X877232Y566544D01*
X877395Y566302D01*
X877455Y566005D01*
X877455Y503992D01*
X877408Y503729D01*
X877249Y503471D01*
X877001Y503295D01*
G37*
G36*
X285588Y458240D02*
X285292Y458175D01*
X284994Y458231D01*
X284741Y458398D01*
X276473Y466666D01*
X275067Y468073D01*
X244305Y468073D01*
X244041Y468119D01*
X243783Y468279D01*
X243608Y468526D01*
X243543Y468822D01*
X243598Y469120D01*
X243766Y469373D01*
X243830Y469437D01*
X243830Y472363D01*
X242541Y473652D01*
X242378Y473893D01*
X242318Y474191D01*
X242318Y539602D01*
X189911Y592009D01*
X189748Y592250D01*
X189688Y592547D01*
X189688Y614395D01*
X189734Y614659D01*
X189894Y614917D01*
X190141Y615092D01*
X190437Y615157D01*
X190735Y615102D01*
X190988Y614934D01*
X191052Y614871D01*
X193978Y614871D01*
X195267Y616159D01*
X195508Y616322D01*
X195806Y616383D01*
X441963Y616383D01*
X442226Y616336D01*
X442484Y616176D01*
X442660Y615929D01*
X442725Y615633D01*
X442669Y615335D01*
X442502Y615082D01*
X442438Y615018D01*
X442438Y613195D01*
X442382Y612909D01*
X442215Y612657D01*
X290363Y460805D01*
X290122Y460642D01*
X289825Y460582D01*
X288002Y460582D01*
X285818Y458398D01*
X285588Y458240D01*
G37*
G36*
X363400Y454283D02*
X363103Y454223D01*
X293472Y454223D01*
X293209Y454269D01*
X292951Y454429D01*
X292775Y454676D01*
X292710Y454972D01*
X292766Y455270D01*
X292933Y455523D01*
X292997Y455587D01*
X292997Y457410D01*
X293053Y457696D01*
X293220Y457948D01*
X445072Y609800D01*
X445313Y609963D01*
X445610Y610023D01*
X447433Y610023D01*
X449502Y612092D01*
X449502Y615018D01*
X449438Y615082D01*
X449285Y615301D01*
X449216Y615596D01*
X449266Y615895D01*
X449430Y616151D01*
X449680Y616322D01*
X449977Y616383D01*
X755058Y616383D01*
X755344Y616327D01*
X755596Y616159D01*
X870872Y500883D01*
X871035Y500642D01*
X871096Y500345D01*
X871096Y498522D01*
X873279Y496338D01*
X873437Y496108D01*
X873502Y495812D01*
X873447Y495514D01*
X873279Y495261D01*
X872050Y494032D01*
X871820Y493874D01*
X871523Y493809D01*
X871225Y493864D01*
X870972Y494032D01*
X834607Y530398D01*
X439593Y530398D01*
X363641Y454446D01*
X363400Y454283D01*
G37*
G36*
X904690Y478520D02*
X904393Y478460D01*
X875865Y478460D01*
X875601Y478507D01*
X875343Y478666D01*
X875168Y478914D01*
X875103Y479210D01*
X875158Y479508D01*
X875326Y479761D01*
X875390Y479825D01*
X875390Y482751D01*
X874101Y484039D01*
X873938Y484281D01*
X873878Y484578D01*
X873878Y489830D01*
X873933Y490116D01*
X874101Y490369D01*
X881495Y497763D01*
X881495Y567994D01*
X868674Y580815D01*
X868516Y581045D01*
X868451Y581342D01*
X868507Y581640D01*
X868674Y581893D01*
X901084Y614302D01*
X901304Y614455D01*
X901599Y614525D01*
X901898Y614474D01*
X902153Y614311D01*
X902325Y614061D01*
X902385Y613764D01*
X902385Y595317D01*
X902329Y595031D01*
X902162Y594779D01*
X887298Y579915D01*
X887057Y579752D01*
X886760Y579692D01*
X885630Y579692D01*
X883561Y577623D01*
X883561Y574697D01*
X884849Y573408D01*
X885012Y573167D01*
X885073Y572869D01*
X885073Y517818D01*
X885017Y517532D01*
X884849Y517279D01*
X883561Y515991D01*
X883561Y513065D01*
X885630Y510996D01*
X888556Y510996D01*
X890625Y513065D01*
X890625Y515991D01*
X889336Y517279D01*
X889173Y517521D01*
X889113Y517818D01*
X889113Y572869D01*
X889168Y573155D01*
X889336Y573408D01*
X890625Y574697D01*
X890625Y577212D01*
X890680Y577498D01*
X890848Y577751D01*
X903854Y590757D01*
X904074Y590910D01*
X904369Y590980D01*
X904668Y590929D01*
X904923Y590766D01*
X905095Y590516D01*
X905155Y590219D01*
X905155Y479222D01*
X905104Y478947D01*
X904940Y478692D01*
X904690Y478520D01*
G37*
G36*
X121519Y422910D02*
X121224Y422840D01*
X120925Y422891D01*
X120669Y423054D01*
X120498Y423304D01*
X120438Y423601D01*
X120438Y549324D01*
X120493Y549610D01*
X120661Y549863D01*
X121950Y551152D01*
X121950Y554078D01*
X119766Y556262D01*
X119608Y556492D01*
X119543Y556788D01*
X119598Y557086D01*
X119766Y557339D01*
X122367Y559940D01*
X122608Y560103D01*
X122905Y560163D01*
X124728Y560163D01*
X126797Y562232D01*
X126797Y565158D01*
X125683Y566272D01*
X125525Y566503D01*
X125459Y566799D01*
X125515Y567097D01*
X125683Y567350D01*
X126797Y568465D01*
X126797Y571391D01*
X124728Y573460D01*
X124568Y573460D01*
X124305Y573506D01*
X124047Y573666D01*
X123872Y573913D01*
X123806Y574209D01*
X123862Y574507D01*
X124030Y574760D01*
X128612Y579343D01*
X128843Y579501D01*
X129139Y579566D01*
X129437Y579511D01*
X129690Y579343D01*
X173673Y535360D01*
X232159Y535360D01*
X232445Y535304D01*
X232698Y535137D01*
X233987Y533848D01*
X236913Y533848D01*
X236977Y533912D01*
X237196Y534065D01*
X237491Y534135D01*
X237790Y534084D01*
X238046Y533920D01*
X238217Y533670D01*
X238278Y533373D01*
X238278Y474191D01*
X238222Y473905D01*
X238054Y473652D01*
X236766Y472363D01*
X236766Y469437D01*
X236829Y469373D01*
X236982Y469154D01*
X237052Y468859D01*
X237001Y468560D01*
X236838Y468304D01*
X236588Y468133D01*
X236290Y468073D01*
X181263Y468073D01*
X180977Y468128D01*
X180724Y468296D01*
X179436Y469585D01*
X176510Y469585D01*
X174441Y467516D01*
X174441Y464590D01*
X176510Y462521D01*
X179436Y462521D01*
X180724Y463809D01*
X180966Y463972D01*
X181263Y464033D01*
X273078Y464033D01*
X273364Y463977D01*
X273616Y463809D01*
X284672Y452753D01*
X284825Y452534D01*
X284895Y452239D01*
X284844Y451940D01*
X284681Y451684D01*
X284431Y451513D01*
X284134Y451453D01*
X143896Y451453D01*
X140091Y447648D01*
X139849Y447485D01*
X139552Y447425D01*
X136345Y447425D01*
X134276Y445356D01*
X134276Y442430D01*
X136345Y440361D01*
X137197Y440361D01*
X137460Y440314D01*
X137718Y440154D01*
X137893Y439907D01*
X137959Y439611D01*
X137903Y439313D01*
X137735Y439060D01*
X121738Y423063D01*
X121519Y422910D01*
G37*
G36*
X84124Y391747D02*
X83829Y391677D01*
X83530Y391728D01*
X83274Y391892D01*
X83103Y392142D01*
X83043Y392439D01*
X83043Y520300D01*
X83098Y520586D01*
X83266Y520839D01*
X113693Y551267D01*
X113924Y551425D01*
X114220Y551490D01*
X114518Y551434D01*
X114771Y551267D01*
X116174Y549863D01*
X116337Y549622D01*
X116398Y549324D01*
X116398Y424270D01*
X116342Y423984D01*
X116174Y423731D01*
X84343Y391900D01*
X84124Y391747D01*
G37*
G36*
X867980Y482478D02*
X867684Y482413D01*
X867386Y482468D01*
X867133Y482636D01*
X824713Y525057D01*
X824560Y525276D01*
X824490Y525571D01*
X824541Y525870D01*
X824704Y526126D01*
X824954Y526297D01*
X825251Y526358D01*
X832618Y526358D01*
X832904Y526302D01*
X833156Y526134D01*
X869614Y489676D01*
X869777Y489435D01*
X869838Y489138D01*
X869838Y484578D01*
X869782Y484292D01*
X869614Y484039D01*
X868211Y482636D01*
X867980Y482478D01*
G37*
G36*
X863879Y189537D02*
X863584Y189467D01*
X863285Y189518D01*
X863029Y189682D01*
X862858Y189932D01*
X862798Y190229D01*
X862798Y233517D01*
X797233Y299081D01*
X797070Y299323D01*
X797010Y299620D01*
X797010Y340189D01*
X797066Y340475D01*
X797233Y340728D01*
X798522Y342017D01*
X798522Y344943D01*
X796453Y347012D01*
X793527Y347012D01*
X791458Y344943D01*
X791458Y342017D01*
X792747Y340728D01*
X792910Y340487D01*
X792970Y340189D01*
X792970Y297631D01*
X794376Y296224D01*
X844194Y246407D01*
X844352Y246176D01*
X844417Y245880D01*
X844362Y245582D01*
X844194Y245329D01*
X842791Y243926D01*
X842549Y243763D01*
X842252Y243703D01*
X807311Y243703D01*
X790914Y227306D01*
X790672Y227143D01*
X790375Y227083D01*
X774736Y227083D01*
X774450Y227138D01*
X774197Y227306D01*
X772908Y228595D01*
X769982Y228595D01*
X767913Y226526D01*
X767913Y223600D01*
X767977Y223536D01*
X768130Y223316D01*
X768200Y223021D01*
X768149Y222722D01*
X767985Y222467D01*
X767735Y222295D01*
X767438Y222235D01*
X732432Y222235D01*
X732146Y222291D01*
X731894Y222458D01*
X712034Y242318D01*
X692267Y242318D01*
X691981Y242373D01*
X691729Y242541D01*
X689203Y245066D01*
X689040Y245308D01*
X688980Y245605D01*
X688980Y273017D01*
X689036Y273303D01*
X689203Y273556D01*
X690492Y274845D01*
X690492Y277771D01*
X688423Y279840D01*
X685497Y279840D01*
X683428Y277771D01*
X683428Y274845D01*
X684717Y273556D01*
X684880Y273314D01*
X684940Y273017D01*
X684940Y243616D01*
X690278Y238278D01*
X710045Y238278D01*
X710331Y238222D01*
X710584Y238054D01*
X714697Y233942D01*
X714855Y233711D01*
X714920Y233415D01*
X714864Y233117D01*
X714697Y232864D01*
X712513Y230681D01*
X712513Y227755D01*
X713802Y226466D01*
X713965Y226224D01*
X714025Y225927D01*
X714025Y214503D01*
X713969Y214217D01*
X713802Y213964D01*
X712513Y212676D01*
X712513Y209750D01*
X712577Y209686D01*
X712730Y209466D01*
X712800Y209171D01*
X712749Y208872D01*
X712585Y208617D01*
X712335Y208445D01*
X712038Y208385D01*
X699253Y208385D01*
X698967Y208441D01*
X698714Y208608D01*
X697426Y209897D01*
X694500Y209897D01*
X692316Y207713D01*
X692085Y207555D01*
X691789Y207490D01*
X691491Y207546D01*
X691238Y207713D01*
X680893Y218059D01*
X680730Y218300D01*
X680670Y218597D01*
X680670Y286147D01*
X446955Y519862D01*
X446792Y520103D01*
X446732Y520400D01*
X446732Y522223D01*
X446668Y522287D01*
X446515Y522506D01*
X446446Y522801D01*
X446496Y523100D01*
X446660Y523356D01*
X446910Y523527D01*
X447207Y523588D01*
X820153Y523588D01*
X820439Y523532D01*
X820691Y523364D01*
X869636Y474420D01*
X904393Y474420D01*
X904668Y474369D01*
X904923Y474205D01*
X905095Y473955D01*
X905155Y473658D01*
X905155Y226907D01*
X905099Y226621D01*
X904932Y226369D01*
X875178Y196615D01*
X874959Y196462D01*
X874664Y196392D01*
X874365Y196443D01*
X874109Y196607D01*
X873938Y196857D01*
X873878Y197154D01*
X873878Y224542D01*
X873933Y224828D01*
X874101Y225081D01*
X875390Y226370D01*
X875390Y229296D01*
X873321Y231365D01*
X870395Y231365D01*
X868326Y229296D01*
X868326Y226370D01*
X869614Y225081D01*
X869777Y224839D01*
X869838Y224542D01*
X869838Y195745D01*
X869782Y195459D01*
X869614Y195206D01*
X864098Y189690D01*
X863879Y189537D01*
G37*
%LPC*%
G36*
X695885Y247846D02*
X698811Y247846D01*
X700922Y249957D01*
X700935Y250023D01*
X701103Y250276D01*
X771239Y320412D01*
X771481Y320575D01*
X771778Y320636D01*
X773601Y320636D01*
X775670Y322705D01*
X775670Y325631D01*
X773601Y327700D01*
X770675Y327700D01*
X768606Y325631D01*
X768606Y323808D01*
X768550Y323522D01*
X768382Y323269D01*
X699955Y254842D01*
X699725Y254684D01*
X699429Y254619D01*
X699131Y254675D01*
X698878Y254842D01*
X698811Y254910D01*
X695885Y254910D01*
X693816Y252841D01*
X693816Y249915D01*
X695885Y247846D01*
G37*
%LPD*%
G36*
X78549Y513683D02*
X78253Y513618D01*
X77955Y513673D01*
X77702Y513841D01*
X77638Y513905D01*
X74712Y513905D01*
X74648Y513841D01*
X74429Y513688D01*
X74134Y513618D01*
X73835Y513669D01*
X73579Y513832D01*
X73408Y514082D01*
X73348Y514380D01*
X73348Y516838D01*
X73403Y517124D01*
X73571Y517376D01*
X77702Y521507D01*
X77921Y521660D01*
X78216Y521730D01*
X78515Y521679D01*
X78771Y521516D01*
X78942Y521266D01*
X79003Y520969D01*
X79003Y514380D01*
X78956Y514116D01*
X78796Y513858D01*
X78549Y513683D01*
G37*
G36*
X663019Y200612D02*
X662723Y200547D01*
X662425Y200603D01*
X662172Y200770D01*
X502228Y360714D01*
X502065Y360955D01*
X502005Y361252D01*
X502005Y452347D01*
X446955Y507397D01*
X446792Y507638D01*
X446732Y507935D01*
X446732Y509758D01*
X444663Y511827D01*
X441737Y511827D01*
X439668Y509758D01*
X439668Y508628D01*
X439612Y508342D01*
X439445Y508089D01*
X377491Y446136D01*
X377250Y445973D01*
X376953Y445913D01*
X366816Y445913D01*
X366553Y445959D01*
X366295Y446119D01*
X366120Y446366D01*
X366054Y446662D01*
X366110Y446960D01*
X366278Y447213D01*
X438476Y519412D01*
X438706Y519570D01*
X439002Y519635D01*
X439301Y519579D01*
X439553Y519412D01*
X441737Y517228D01*
X443560Y517228D01*
X443846Y517172D01*
X444098Y517005D01*
X676407Y284696D01*
X676570Y284455D01*
X676630Y284158D01*
X676630Y266465D01*
X676583Y266201D01*
X676424Y265943D01*
X676176Y265768D01*
X675880Y265703D01*
X675582Y265758D01*
X675329Y265926D01*
X675266Y265990D01*
X672340Y265990D01*
X670271Y263921D01*
X670271Y262098D01*
X670215Y261812D01*
X670047Y261559D01*
X663473Y254984D01*
X663473Y201309D01*
X663426Y201046D01*
X663266Y200787D01*
X663019Y200612D01*
G37*
%LPC*%
G36*
X551152Y357953D02*
X554078Y357953D01*
X556147Y360022D01*
X556147Y362948D01*
X554858Y364237D01*
X554695Y364478D01*
X554635Y364776D01*
X554635Y396974D01*
X554691Y397260D01*
X554858Y397513D01*
X556147Y398802D01*
X556147Y401728D01*
X554078Y403797D01*
X551152Y403797D01*
X549083Y401728D01*
X549083Y398802D01*
X550372Y397513D01*
X550535Y397272D01*
X550595Y396974D01*
X550595Y364776D01*
X550539Y364490D01*
X550372Y364237D01*
X549083Y362948D01*
X549083Y360022D01*
X551152Y357953D01*
G37*
G36*
X542150Y357953D02*
X545076Y357953D01*
X547145Y360022D01*
X547145Y362948D01*
X545856Y364237D01*
X545693Y364478D01*
X545633Y364776D01*
X545633Y396974D01*
X545688Y397260D01*
X545856Y397513D01*
X547145Y398802D01*
X547145Y401728D01*
X545076Y403797D01*
X542150Y403797D01*
X540081Y401728D01*
X540081Y398802D01*
X541369Y397513D01*
X541532Y397272D01*
X541593Y396974D01*
X541593Y364776D01*
X541537Y364490D01*
X541369Y364237D01*
X540081Y362948D01*
X540081Y360022D01*
X542150Y357953D01*
G37*
%LPD*%
G36*
X746984Y148890D02*
X746687Y148830D01*
X685427Y148830D01*
X685164Y148877D01*
X684906Y149036D01*
X684730Y149284D01*
X684665Y149580D01*
X684721Y149878D01*
X684888Y150131D01*
X684952Y150195D01*
X684952Y153121D01*
X682883Y155190D01*
X681060Y155190D01*
X680774Y155245D01*
X680522Y155413D01*
X399717Y436218D01*
X229738Y436218D01*
X229452Y436273D01*
X229199Y436441D01*
X227911Y437730D01*
X224985Y437730D01*
X222916Y435661D01*
X222916Y434530D01*
X222860Y434244D01*
X222692Y433992D01*
X142734Y354033D01*
X142492Y353870D01*
X142195Y353810D01*
X67001Y353810D01*
X66715Y353866D01*
X66462Y354033D01*
X65058Y355437D01*
X64900Y355667D01*
X64835Y355963D01*
X64891Y356261D01*
X65058Y356514D01*
X116954Y408409D01*
X117195Y408572D01*
X117492Y408633D01*
X155957Y408633D01*
X187462Y440137D01*
X187703Y440300D01*
X188000Y440361D01*
X190516Y440361D01*
X191804Y441649D01*
X192046Y441812D01*
X192343Y441873D01*
X378942Y441873D01*
X441609Y504540D01*
X441851Y504703D01*
X442148Y504763D01*
X443560Y504763D01*
X443846Y504707D01*
X444098Y504540D01*
X497742Y450896D01*
X497905Y450655D01*
X497965Y450358D01*
X497965Y389037D01*
X497918Y388774D01*
X497759Y388516D01*
X497511Y388340D01*
X497215Y388275D01*
X496917Y388331D01*
X496664Y388498D01*
X496601Y388562D01*
X493675Y388562D01*
X491606Y386493D01*
X491606Y383567D01*
X492894Y382278D01*
X493057Y382037D01*
X493118Y381739D01*
X493118Y364776D01*
X493062Y364490D01*
X492894Y364237D01*
X491606Y362948D01*
X491606Y360022D01*
X493675Y357953D01*
X496601Y357953D01*
X497399Y358752D01*
X497630Y358910D01*
X497926Y358975D01*
X498224Y358919D01*
X498477Y358752D01*
X499371Y357857D01*
X699825Y157403D01*
X699988Y157162D01*
X700048Y156865D01*
X700048Y155042D01*
X702117Y152973D01*
X705043Y152973D01*
X707112Y155042D01*
X707112Y157968D01*
X705043Y160037D01*
X703220Y160037D01*
X702934Y160093D01*
X702682Y160260D01*
X670978Y191964D01*
X670825Y192184D01*
X670755Y192479D01*
X670806Y192778D01*
X670969Y193033D01*
X671219Y193205D01*
X671516Y193265D01*
X706583Y193265D01*
X706869Y193209D01*
X707121Y193042D01*
X748629Y151534D01*
X748787Y151304D01*
X748852Y151008D01*
X748797Y150709D01*
X748629Y150457D01*
X747226Y149053D01*
X746984Y148890D01*
G37*
G36*
X154265Y412733D02*
X153968Y412673D01*
X121732Y412673D01*
X121469Y412719D01*
X121211Y412879D01*
X121035Y413126D01*
X120970Y413422D01*
X121026Y413720D01*
X121193Y413973D01*
X121257Y414037D01*
X121257Y416552D01*
X121313Y416838D01*
X121480Y417091D01*
X143142Y438752D01*
X143383Y438915D01*
X143680Y438976D01*
X145503Y438976D01*
X147572Y441045D01*
X147572Y443971D01*
X145431Y446112D01*
X145278Y446331D01*
X145208Y446626D01*
X145259Y446925D01*
X145422Y447181D01*
X145672Y447352D01*
X145970Y447413D01*
X185738Y447413D01*
X186001Y447366D01*
X186259Y447206D01*
X186435Y446959D01*
X186500Y446663D01*
X186444Y446365D01*
X186277Y446112D01*
X185521Y445356D01*
X185521Y444225D01*
X185465Y443939D01*
X185297Y443687D01*
X154506Y412896D01*
X154265Y412733D01*
G37*
G36*
X714773Y7810D02*
X714476Y7750D01*
X3524Y7750D01*
X3249Y7801D01*
X2994Y7965D01*
X2822Y8215D01*
X2762Y8512D01*
X2762Y443937D01*
X2813Y444211D01*
X2977Y444467D01*
X3227Y444638D01*
X3524Y444699D01*
X62590Y444699D01*
X62853Y444652D01*
X63111Y444492D01*
X63287Y444245D01*
X63352Y443949D01*
X63296Y443651D01*
X63129Y443398D01*
X29143Y409412D01*
X29143Y287216D01*
X29087Y286930D01*
X28919Y286677D01*
X27631Y285388D01*
X27631Y282462D01*
X29700Y280393D01*
X32626Y280393D01*
X34074Y281842D01*
X34294Y281995D01*
X34589Y282065D01*
X34888Y282014D01*
X35143Y281850D01*
X35315Y281600D01*
X35375Y281303D01*
X35375Y33096D01*
X44720Y23751D01*
X44883Y23509D01*
X44943Y23212D01*
X44943Y20697D01*
X47012Y18628D01*
X49938Y18628D01*
X51227Y19917D01*
X51468Y20080D01*
X51766Y20140D01*
X527137Y20140D01*
X613476Y106479D01*
X613718Y106642D01*
X614015Y106703D01*
X714476Y106703D01*
X714751Y106651D01*
X715006Y106488D01*
X715178Y106238D01*
X715238Y105941D01*
X715238Y8512D01*
X715187Y8237D01*
X715023Y7982D01*
X714773Y7810D01*
G37*
G36*
X34264Y368955D02*
X33969Y368886D01*
X33670Y368936D01*
X33414Y369100D01*
X33243Y369350D01*
X33183Y369647D01*
X33183Y407423D01*
X33238Y407709D01*
X33406Y407961D01*
X68007Y442562D01*
X68226Y442715D01*
X68521Y442785D01*
X68820Y442734D01*
X69076Y442571D01*
X69247Y442321D01*
X69308Y442024D01*
X69308Y402110D01*
X69252Y401824D01*
X69084Y401571D01*
X36908Y369395D01*
X36667Y369232D01*
X36370Y369172D01*
X34547Y369172D01*
X34483Y369108D01*
X34264Y368955D01*
G37*
G36*
X521205Y24240D02*
X520908Y24180D01*
X51766Y24180D01*
X51480Y24236D01*
X51227Y24403D01*
X49938Y25692D01*
X48808Y25692D01*
X48522Y25748D01*
X48269Y25915D01*
X39638Y34546D01*
X39475Y34788D01*
X39415Y35085D01*
X39415Y188569D01*
X39462Y188832D01*
X39621Y189090D01*
X39869Y189265D01*
X40165Y189331D01*
X40463Y189275D01*
X40716Y189107D01*
X188760Y41063D01*
X188923Y40822D01*
X188983Y40525D01*
X188983Y38702D01*
X191052Y36633D01*
X193978Y36633D01*
X196047Y38702D01*
X196047Y41628D01*
X193978Y43697D01*
X192155Y43697D01*
X191869Y43753D01*
X191617Y43920D01*
X42408Y193129D01*
X42245Y193370D01*
X42185Y193667D01*
X42185Y339473D01*
X42232Y339736D01*
X42391Y339994D01*
X42639Y340170D01*
X42935Y340235D01*
X43233Y340179D01*
X43486Y340012D01*
X43550Y339948D01*
X46476Y339948D01*
X48545Y342017D01*
X48545Y343840D01*
X48600Y344126D01*
X48768Y344378D01*
X55542Y351152D01*
X55761Y351305D01*
X56056Y351375D01*
X56355Y351324D01*
X56611Y351161D01*
X56782Y350911D01*
X56843Y350614D01*
X56843Y329458D01*
X56787Y329172D01*
X56619Y328919D01*
X55331Y327631D01*
X55331Y324705D01*
X57400Y322636D01*
X60326Y322636D01*
X62395Y324705D01*
X62395Y327631D01*
X61106Y328919D01*
X60943Y329161D01*
X60883Y329458D01*
X60883Y347783D01*
X60929Y348046D01*
X61089Y348304D01*
X61336Y348480D01*
X61632Y348545D01*
X61930Y348489D01*
X62183Y348322D01*
X62247Y348258D01*
X65173Y348258D01*
X66462Y349547D01*
X66703Y349710D01*
X67001Y349770D01*
X144184Y349770D01*
X224857Y430442D01*
X225098Y430605D01*
X225395Y430666D01*
X227911Y430666D01*
X229199Y431954D01*
X229441Y432117D01*
X229738Y432178D01*
X397728Y432178D01*
X398014Y432122D01*
X398266Y431954D01*
X646832Y183389D01*
X646990Y183159D01*
X647055Y182863D01*
X646999Y182564D01*
X646832Y182312D01*
X644648Y180128D01*
X644648Y177202D01*
X645937Y175913D01*
X646100Y175672D01*
X646160Y175374D01*
X646160Y157657D01*
X646104Y157371D01*
X645937Y157119D01*
X625533Y136715D01*
X625292Y136552D01*
X624995Y136492D01*
X623172Y136492D01*
X621103Y134423D01*
X621103Y131497D01*
X623287Y129313D01*
X623445Y129083D01*
X623510Y128787D01*
X623454Y128489D01*
X623287Y128236D01*
X525813Y30763D01*
X525572Y30600D01*
X525275Y30540D01*
X523452Y30540D01*
X521383Y28471D01*
X521383Y25545D01*
X521447Y25481D01*
X521600Y25261D01*
X521670Y24966D01*
X521619Y24667D01*
X521455Y24412D01*
X521205Y24240D01*
G37*
G36*
X34921Y285850D02*
X34625Y285785D01*
X34327Y285841D01*
X34074Y286008D01*
X33406Y286677D01*
X33243Y286918D01*
X33183Y287216D01*
X33183Y361633D01*
X33229Y361896D01*
X33389Y362154D01*
X33636Y362330D01*
X33932Y362395D01*
X34230Y362339D01*
X34483Y362172D01*
X34547Y362108D01*
X37473Y362108D01*
X39542Y364177D01*
X39542Y366000D01*
X39598Y366286D01*
X39765Y366538D01*
X72854Y399627D01*
X73074Y399780D01*
X73369Y399850D01*
X73668Y399799D01*
X73923Y399636D01*
X74095Y399386D01*
X74155Y399089D01*
X74155Y392415D01*
X74099Y392129D01*
X73932Y391876D01*
X35375Y353319D01*
X35375Y286547D01*
X35328Y286284D01*
X35169Y286026D01*
X34921Y285850D01*
G37*
G36*
X43266Y346795D02*
X42971Y346726D01*
X42672Y346776D01*
X42417Y346940D01*
X42245Y347190D01*
X42185Y347487D01*
X42185Y349945D01*
X42241Y350231D01*
X42408Y350484D01*
X47213Y355289D01*
X47444Y355447D01*
X47740Y355512D01*
X48038Y355457D01*
X48291Y355289D01*
X50589Y352991D01*
X50747Y352760D01*
X50812Y352464D01*
X50757Y352166D01*
X50589Y351913D01*
X45911Y347235D01*
X45669Y347072D01*
X45372Y347012D01*
X43550Y347012D01*
X43486Y346948D01*
X43266Y346795D01*
G37*
G36*
X690928Y200828D02*
X690631Y200768D01*
X674634Y200768D01*
X674359Y200819D01*
X674104Y200982D01*
X673932Y201232D01*
X673872Y201530D01*
X673872Y201596D01*
X671803Y203665D01*
X668877Y203665D01*
X668813Y203601D01*
X668594Y203448D01*
X668299Y203378D01*
X668000Y203429D01*
X667744Y203592D01*
X667573Y203842D01*
X667513Y204140D01*
X667513Y252995D01*
X667568Y253281D01*
X667736Y253534D01*
X672904Y258702D01*
X673146Y258865D01*
X673443Y258926D01*
X675266Y258926D01*
X675329Y258989D01*
X675549Y259142D01*
X675844Y259212D01*
X676143Y259161D01*
X676398Y258998D01*
X676570Y258748D01*
X676630Y258450D01*
X676630Y216608D01*
X691170Y202068D01*
X691323Y201849D01*
X691393Y201554D01*
X691342Y201255D01*
X691179Y200999D01*
X690928Y200828D01*
G37*
G36*
X852937Y194595D02*
X852639Y194535D01*
X849465Y194535D01*
X849179Y194591D01*
X848926Y194758D01*
X821449Y222235D01*
X793396Y222235D01*
X793133Y222282D01*
X792875Y222441D01*
X792700Y222689D01*
X792634Y222985D01*
X792690Y223283D01*
X792858Y223536D01*
X808761Y239439D01*
X809003Y239602D01*
X809300Y239663D01*
X842252Y239663D01*
X842538Y239607D01*
X842791Y239439D01*
X844080Y238151D01*
X847006Y238151D01*
X849189Y240334D01*
X849420Y240492D01*
X849716Y240557D01*
X850014Y240502D01*
X850267Y240334D01*
X858534Y232066D01*
X858697Y231825D01*
X858758Y231528D01*
X858758Y196522D01*
X858711Y196259D01*
X858551Y196001D01*
X858304Y195825D01*
X858008Y195760D01*
X857710Y195816D01*
X857457Y195983D01*
X857393Y196047D01*
X854467Y196047D01*
X853178Y194758D01*
X852937Y194595D01*
G37*
G36*
X780893Y208445D02*
X780595Y208385D01*
X720052Y208385D01*
X719789Y208432D01*
X719531Y208591D01*
X719355Y208839D01*
X719290Y209135D01*
X719346Y209433D01*
X719513Y209686D01*
X719577Y209750D01*
X719577Y212676D01*
X718288Y213964D01*
X718125Y214206D01*
X718065Y214503D01*
X718065Y225927D01*
X718121Y226213D01*
X718288Y226466D01*
X719692Y227869D01*
X719922Y228027D01*
X720218Y228092D01*
X720516Y228037D01*
X720769Y227869D01*
X730443Y218195D01*
X799293Y218195D01*
X799556Y218148D01*
X799814Y217989D01*
X799990Y217741D01*
X800055Y217445D01*
X799999Y217147D01*
X799832Y216894D01*
X798383Y215446D01*
X798383Y213995D01*
X798332Y213720D01*
X798168Y213464D01*
X797918Y213293D01*
X797621Y213233D01*
X787893Y213233D01*
X787607Y213288D01*
X787354Y213456D01*
X786066Y214745D01*
X783140Y214745D01*
X781071Y212676D01*
X781071Y209750D01*
X781134Y209686D01*
X781287Y209466D01*
X781357Y209171D01*
X781306Y208872D01*
X781143Y208617D01*
X780893Y208445D01*
G37*
G36*
X820426Y216063D02*
X820129Y216003D01*
X805206Y216003D01*
X804920Y216058D01*
X804667Y216226D01*
X803998Y216894D01*
X803845Y217114D01*
X803776Y217409D01*
X803826Y217708D01*
X803990Y217963D01*
X804240Y218135D01*
X804537Y218195D01*
X819460Y218195D01*
X819746Y218139D01*
X819999Y217972D01*
X820667Y217303D01*
X820820Y217084D01*
X820890Y216789D01*
X820839Y216490D01*
X820676Y216234D01*
X820426Y216063D01*
G37*
G36*
X823888Y208445D02*
X823591Y208385D01*
X801014Y208385D01*
X800751Y208432D01*
X800492Y208591D01*
X800317Y208839D01*
X800252Y209135D01*
X800308Y209433D01*
X800475Y209686D01*
X801017Y210227D01*
X801258Y210390D01*
X801555Y210451D01*
X803378Y210451D01*
X804667Y211739D01*
X804908Y211902D01*
X805206Y211963D01*
X821538Y211963D01*
X821824Y211907D01*
X822076Y211739D01*
X824130Y209686D01*
X824283Y209466D01*
X824353Y209171D01*
X824302Y208872D01*
X824139Y208617D01*
X823888Y208445D01*
G37*
G36*
X815518Y158585D02*
X815220Y158525D01*
X810077Y158525D01*
X809814Y158572D01*
X809556Y158731D01*
X809380Y158979D01*
X809315Y159275D01*
X809371Y159573D01*
X809538Y159826D01*
X809602Y159890D01*
X809602Y162816D01*
X807533Y164885D01*
X804607Y164885D01*
X803318Y163596D01*
X803077Y163433D01*
X802779Y163373D01*
X751130Y163373D01*
X750844Y163428D01*
X750591Y163596D01*
X711143Y203044D01*
X710990Y203264D01*
X710920Y203559D01*
X710971Y203858D01*
X711134Y204113D01*
X711384Y204285D01*
X711681Y204345D01*
X800678Y204345D01*
X800941Y204298D01*
X801199Y204139D01*
X801375Y203891D01*
X801440Y203595D01*
X801384Y203297D01*
X801217Y203044D01*
X801153Y202981D01*
X801153Y201158D01*
X801097Y200872D01*
X800930Y200619D01*
X795761Y195451D01*
X795520Y195288D01*
X795223Y195228D01*
X787893Y195228D01*
X787607Y195283D01*
X787354Y195451D01*
X786066Y196740D01*
X783140Y196740D01*
X781071Y194671D01*
X781071Y191745D01*
X783085Y189730D01*
X783238Y189511D01*
X783308Y189216D01*
X783257Y188917D01*
X783093Y188661D01*
X782843Y188490D01*
X782546Y188430D01*
X781062Y188430D01*
X779773Y187141D01*
X779532Y186978D01*
X779234Y186918D01*
X776841Y186918D01*
X772195Y182272D01*
X772195Y177828D01*
X776841Y173183D01*
X832594Y173183D01*
X832857Y173136D01*
X833115Y172976D01*
X833290Y172729D01*
X833356Y172433D01*
X833300Y172135D01*
X833132Y171882D01*
X824846Y163596D01*
X824605Y163433D01*
X824308Y163373D01*
X822518Y163373D01*
X822232Y163428D01*
X821979Y163596D01*
X820691Y164885D01*
X817765Y164885D01*
X815696Y162816D01*
X815696Y159890D01*
X815759Y159826D01*
X815912Y159606D01*
X815982Y159311D01*
X815931Y159012D01*
X815768Y158757D01*
X815518Y158585D01*
G37*
G36*
X802445Y182130D02*
X802148Y182070D01*
X786532Y182070D01*
X786269Y182117D01*
X786011Y182276D01*
X785835Y182524D01*
X785770Y182820D01*
X785826Y183118D01*
X785993Y183371D01*
X786057Y183435D01*
X786057Y186361D01*
X784043Y188375D01*
X783890Y188594D01*
X783820Y188889D01*
X783871Y189188D01*
X784034Y189444D01*
X784284Y189615D01*
X784582Y189676D01*
X786066Y189676D01*
X787354Y190964D01*
X787596Y191127D01*
X787893Y191188D01*
X797212Y191188D01*
X803787Y197762D01*
X804028Y197925D01*
X804325Y197986D01*
X806148Y197986D01*
X808217Y200055D01*
X808217Y202981D01*
X808153Y203044D01*
X808000Y203264D01*
X807931Y203559D01*
X807981Y203858D01*
X808145Y204113D01*
X808395Y204285D01*
X808692Y204345D01*
X820760Y204345D01*
X821024Y204298D01*
X821282Y204139D01*
X821457Y203891D01*
X821522Y203595D01*
X821467Y203297D01*
X821299Y203044D01*
X821236Y202981D01*
X821236Y201158D01*
X821180Y200872D01*
X821012Y200619D01*
X802686Y182293D01*
X802445Y182130D01*
G37*
G36*
X851612Y177283D02*
X851315Y177223D01*
X805169Y177223D01*
X804906Y177269D01*
X804647Y177429D01*
X804472Y177676D01*
X804407Y177972D01*
X804463Y178270D01*
X804630Y178523D01*
X823869Y197762D01*
X824111Y197925D01*
X824408Y197986D01*
X826231Y197986D01*
X828414Y200169D01*
X828645Y200327D01*
X828941Y200392D01*
X829239Y200337D01*
X829492Y200169D01*
X848861Y180800D01*
X850562Y180800D01*
X850848Y180744D01*
X851101Y180577D01*
X852504Y179173D01*
X852662Y178943D01*
X852727Y178647D01*
X852672Y178349D01*
X852504Y178096D01*
X851854Y177446D01*
X851612Y177283D01*
G37*
G36*
X858346Y184010D02*
X858050Y183945D01*
X857752Y184001D01*
X857499Y184168D01*
X857321Y184347D01*
X857168Y184566D01*
X857098Y184861D01*
X857149Y185160D01*
X857312Y185416D01*
X857562Y185587D01*
X857860Y185648D01*
X858216Y185648D01*
X858479Y185601D01*
X858738Y185441D01*
X858913Y185194D01*
X858978Y184898D01*
X858922Y184600D01*
X858755Y184347D01*
X858577Y184168D01*
X858346Y184010D01*
G37*
G36*
X677710Y148890D02*
X677413Y148830D01*
X645201Y148830D01*
X644938Y148877D01*
X644680Y149036D01*
X644505Y149284D01*
X644439Y149580D01*
X644495Y149878D01*
X644663Y150131D01*
X650200Y155668D01*
X650200Y175374D01*
X650256Y175660D01*
X650423Y175913D01*
X651827Y177317D01*
X652057Y177475D01*
X652353Y177540D01*
X652651Y177484D01*
X652904Y177317D01*
X677665Y152556D01*
X677828Y152314D01*
X677888Y152017D01*
X677888Y150195D01*
X677952Y150131D01*
X678105Y149911D01*
X678175Y149616D01*
X678124Y149317D01*
X677960Y149062D01*
X677710Y148890D01*
G37*
G36*
X831469Y149583D02*
X831172Y149523D01*
X830767Y149523D01*
X830481Y149578D01*
X830229Y149746D01*
X821961Y158013D01*
X821803Y158244D01*
X821738Y158540D01*
X821793Y158838D01*
X821961Y159091D01*
X821979Y159109D01*
X822221Y159272D01*
X822518Y159333D01*
X824629Y159333D01*
X824903Y159281D01*
X825159Y159118D01*
X825330Y158868D01*
X825391Y158571D01*
X825391Y157120D01*
X827460Y155051D01*
X829282Y155051D01*
X829568Y154995D01*
X829821Y154827D01*
X832768Y151880D01*
X832926Y151650D01*
X832991Y151354D01*
X832935Y151056D01*
X832768Y150803D01*
X831711Y149746D01*
X831469Y149583D01*
G37*
G36*
X823852Y146120D02*
X823554Y146060D01*
X760132Y146060D01*
X759846Y146116D01*
X759594Y146283D01*
X752693Y153184D01*
X752540Y153404D01*
X752470Y153699D01*
X752521Y153998D01*
X752684Y154253D01*
X752934Y154425D01*
X753231Y154485D01*
X819460Y154485D01*
X819746Y154429D01*
X819999Y154262D01*
X825497Y148764D01*
X825655Y148534D01*
X825720Y148238D01*
X825664Y147939D01*
X825497Y147687D01*
X824093Y146283D01*
X823852Y146120D01*
G37*
G36*
X801060Y110803D02*
X800763Y110743D01*
X613346Y110743D01*
X613083Y110789D01*
X612825Y110949D01*
X612650Y111196D01*
X612584Y111492D01*
X612640Y111790D01*
X612808Y112043D01*
X645331Y144567D01*
X645573Y144730D01*
X645870Y144790D01*
X746687Y144790D01*
X746973Y144734D01*
X747226Y144567D01*
X748515Y143278D01*
X751441Y143278D01*
X753624Y145462D01*
X753855Y145620D01*
X754151Y145685D01*
X754449Y145629D01*
X754702Y145462D01*
X758143Y142020D01*
X823554Y142020D01*
X823840Y141964D01*
X824093Y141797D01*
X825382Y140508D01*
X828308Y140508D01*
X830377Y142577D01*
X830377Y144721D01*
X830428Y144995D01*
X830592Y145251D01*
X830842Y145422D01*
X831139Y145483D01*
X831172Y145483D01*
X831458Y145427D01*
X831711Y145259D01*
X833114Y143856D01*
X833272Y143625D01*
X833337Y143329D01*
X833282Y143031D01*
X833114Y142778D01*
X801301Y110966D01*
X801060Y110803D01*
G37*
D10*
X484058Y1080993D02*
X484058Y1067835D01*
X96950Y1020053D02*
X78253Y1038750D01*
X83100Y641255D02*
X157198Y567158D01*
X1517268Y460513D02*
X1522808Y460513D01*
X1536311Y474016D02*
X1538043Y475748D01*
X1536311Y474016D02*
X1522808Y460513D01*
X1515190Y505525D02*
X1515190Y511758D01*
X1515190Y505525D02*
X1511728Y502063D01*
X1511728Y498600D01*
X1536311Y474016D01*
X1240960Y498600D02*
X1225725Y498600D01*
X1220185Y493060D01*
X1240960Y498600D02*
X1313673Y498600D01*
X692500Y272845D02*
X692500Y245145D01*
X719508Y245145D01*
X734743Y229910D01*
X790143Y229910D01*
X801915Y241683D01*
X1162708Y353175D02*
X1162708Y376720D01*
X1162708Y353175D02*
X1164785Y351098D01*
X692500Y347635D02*
X692500Y272845D01*
X1162708Y376720D02*
X1180020Y376720D01*
X441123Y439045D02*
X355253Y439045D01*
X441123Y439045D02*
X479903Y400265D01*
D11*
X484058Y1067835D03*
X484058Y1080993D03*
X96950Y1020053D03*
X78253Y1038750D03*
X157198Y567158D03*
X83100Y641255D03*
X1517268Y460513D03*
X1538043Y475748D03*
X1515190Y511758D03*
X1240960Y498600D03*
X1220185Y493060D03*
X1313673Y498600D03*
X692500Y272845D03*
X692500Y245145D03*
X734743Y229910D03*
X801915Y241683D03*
X1162708Y376720D03*
X1164785Y351098D03*
X692500Y347635D03*
X1180020Y376720D03*
X355253Y439045D03*
X479903Y400265D03*
D10*
X648180Y178665D02*
X648180Y156505D01*
X624635Y132960D01*
D11*
X648180Y178665D03*
X624635Y132960D03*
D10*
X829615Y147503D02*
X834463Y147503D01*
X829615Y147503D02*
X820613Y156505D01*
X750670Y156505D01*
X708428Y198748D01*
X671725Y198748D01*
X670340Y200133D01*
D11*
X834463Y147503D03*
X670340Y200133D03*
D10*
X1634300Y543613D02*
X1634300Y553308D01*
D11*
X1634300Y543613D03*
X1634300Y553308D03*
D10*
X1584440Y500678D02*
X1516575Y500678D01*
X1584440Y500678D02*
X1628068Y544305D01*
D11*
X1516575Y500678D03*
X1628068Y544305D03*
D10*
X1594828Y520068D02*
X1484720Y520068D01*
X1594828Y520068D02*
X1634300Y559540D01*
D11*
X1484720Y520068D03*
X1634300Y559540D03*
D10*
X1490260Y510373D02*
X1361455Y510373D01*
X1225725Y646103D01*
X890555Y646103D02*
X213983Y646103D01*
X187668Y619788D01*
X187668Y591395D01*
X240298Y538765D01*
X240298Y470900D01*
D11*
X1490260Y510373D03*
X1225725Y646103D03*
X890555Y646103D03*
X240298Y470900D03*
D10*
X1370458Y495138D02*
X1478488Y495138D01*
X1370458Y495138D02*
X1202180Y663415D01*
X445970Y613555D02*
X289465Y457050D01*
D11*
X1478488Y495138D03*
X1202180Y663415D03*
X445970Y613555D03*
X289465Y457050D03*
D10*
X699348Y251378D02*
X772138Y324168D01*
X699348Y251378D02*
X697348Y251378D01*
D11*
X697348Y251378D03*
X772138Y324168D03*
D10*
X808148Y241683D02*
X845543Y241683D01*
X808148Y241683D02*
X791528Y225063D01*
X771445Y225063D01*
D11*
X845543Y241683D03*
X771445Y225063D03*
D10*
X784603Y211213D02*
X799145Y211213D01*
X801915Y213983D01*
X794990Y298468D02*
X794990Y343480D01*
X794990Y298468D02*
X860778Y232680D01*
X860778Y191130D01*
X857315Y187668D01*
X849005Y187668D01*
X822690Y213983D01*
X801915Y213983D01*
D11*
X784603Y211213D03*
X801915Y213983D03*
X794990Y343480D03*
D10*
X849698Y182820D02*
X853853Y182820D01*
X849698Y182820D02*
X826153Y206365D01*
X695963Y206365D01*
D11*
X853853Y182820D03*
X695963Y206365D03*
D10*
X828923Y158583D02*
X835155Y152350D01*
X835848Y152350D01*
X839310Y148888D01*
X839310Y146118D01*
X801915Y108723D01*
X612863Y108723D01*
X526300Y22160D01*
X48475Y22160D01*
X76175Y391263D02*
X76175Y510373D01*
X76175Y391263D02*
X37395Y352483D01*
X37395Y33933D01*
X48475Y22853D01*
X48475Y22160D01*
D11*
X828923Y158583D03*
X48475Y22160D03*
X76175Y510373D03*
D10*
X644718Y146810D02*
X749978Y146810D01*
X644718Y146810D02*
X524915Y27008D01*
X81023Y521453D02*
X123265Y563695D01*
X81023Y521453D02*
X81023Y391955D01*
X40165Y351098D01*
X40165Y192515D01*
X192515Y40165D01*
D11*
X749978Y146810D03*
X524915Y27008D03*
X123265Y563695D03*
X192515Y40165D03*
D10*
X819228Y161353D02*
X825460Y161353D01*
X836540Y172433D01*
X853853Y172433D01*
X907175Y225755D01*
X907175Y476440D02*
X907175Y990968D01*
X907175Y476440D02*
X907175Y225755D01*
X907175Y990968D02*
X831000Y1067143D01*
X139193Y443893D02*
X137808Y443893D01*
X139193Y443893D02*
X144733Y449433D01*
X365640Y449433D01*
X441815Y525608D01*
X821305Y525608D01*
X870473Y476440D01*
X907175Y476440D01*
D11*
X819228Y161353D03*
X831000Y1067143D03*
X137808Y443893D03*
D10*
X398880Y434198D02*
X681420Y151658D01*
X398880Y434198D02*
X226448Y434198D01*
X143348Y351790D02*
X63710Y351790D01*
X143348Y351790D02*
X225755Y434198D01*
X226448Y434198D01*
D11*
X681420Y151658D03*
X226448Y434198D03*
X63710Y351790D03*
D10*
X749978Y161353D02*
X806070Y161353D01*
X749978Y161353D02*
X709813Y201518D01*
X694578Y201518D01*
X678650Y217445D01*
X678650Y285310D01*
X443200Y520760D01*
X39473Y678650D02*
X39473Y808148D01*
X39473Y678650D02*
X173818Y544305D01*
X144040Y442508D02*
X117379Y415846D01*
X45013Y343480D01*
X117379Y415846D02*
X117725Y415500D01*
D11*
X806070Y161353D03*
X443200Y520760D03*
X39473Y808148D03*
X173818Y544305D03*
X45013Y343480D03*
X144040Y442508D03*
X117725Y415500D03*
D10*
X499985Y360100D02*
X703580Y156505D01*
X499985Y360100D02*
X499985Y451510D01*
X443200Y508295D01*
X378105Y443893D02*
X189053Y443893D01*
X378105Y443893D02*
X442508Y508295D01*
X443200Y508295D01*
X58863Y353175D02*
X58863Y326168D01*
X58863Y353175D02*
X116340Y410653D01*
X155120Y410653D01*
X188360Y443893D01*
X189053Y443893D01*
D11*
X703580Y156505D03*
X443200Y508295D03*
X189053Y443893D03*
X58863Y326168D03*
D10*
X777678Y184898D02*
X782525Y184898D01*
X777678Y184898D02*
X774215Y181435D01*
X774215Y178665D01*
X777678Y175203D01*
X852468Y175203D01*
X871858Y194593D01*
X871858Y227833D01*
D11*
X782525Y184898D03*
X871858Y227833D03*
D10*
X796375Y193208D02*
X784603Y193208D01*
X796375Y193208D02*
X804685Y201518D01*
D11*
X784603Y193208D03*
X804685Y201518D03*
D10*
X1182098Y365640D02*
X1182098Y369795D01*
X1193870Y381568D01*
D11*
X1182098Y365640D03*
X1193870Y381568D03*
D10*
X1269353Y463283D02*
X1303285Y463283D01*
X1269353Y463283D02*
X1209105Y403035D01*
D11*
X1303285Y463283D03*
X1209105Y403035D03*
D10*
X168970Y579623D02*
X168970Y773523D01*
D11*
X168970Y579623D03*
X168970Y773523D03*
D10*
X174510Y537380D02*
X235450Y537380D01*
X129151Y582739D02*
X94180Y617710D01*
X129151Y582739D02*
X174510Y537380D01*
X39473Y814380D02*
X39473Y938338D01*
X39473Y814380D02*
X34625Y809533D01*
X34625Y677958D01*
X94180Y618403D01*
X94180Y617710D01*
X31163Y408575D02*
X31163Y283925D01*
X31163Y408575D02*
X68558Y445970D01*
X68558Y522145D01*
X129151Y582739D01*
D11*
X235450Y537380D03*
X94180Y617710D03*
X39473Y938338D03*
X31163Y283925D03*
D10*
X1178635Y488213D02*
X1247193Y488213D01*
D11*
X1178635Y488213D03*
X1247193Y488213D03*
D10*
X599705Y1087918D02*
X241683Y729895D01*
D11*
X241683Y729895D03*
X599705Y1087918D03*
D10*
X118418Y552615D02*
X118418Y423118D01*
X51938Y356638D01*
D11*
X118418Y552615D03*
X51938Y356638D03*
D10*
X71328Y517990D02*
X123265Y569928D01*
X71328Y517990D02*
X71328Y400958D01*
X36010Y365640D01*
D11*
X123265Y569928D03*
X36010Y365640D03*
D10*
X241683Y650950D02*
X799838Y650950D01*
D11*
X241683Y650950D03*
X799838Y650950D03*
D10*
X896788Y641255D02*
X228525Y641255D01*
X1148165Y389878D02*
X1230573Y389878D01*
X1499955Y120495D01*
D11*
X228525Y641255D03*
X896788Y641255D03*
X1148165Y389878D03*
X1499955Y120495D03*
D10*
X1357300Y312318D02*
X1357300Y458435D01*
X1357300Y312318D02*
X1515190Y154428D01*
X1531118Y137808D02*
X1531118Y68558D01*
X1531118Y137808D02*
X1515190Y153735D01*
X1515190Y154428D01*
X756210Y618403D02*
X192515Y618403D01*
X756210Y618403D02*
X874628Y499985D01*
X1314365Y458435D02*
X1357300Y458435D01*
X1314365Y458435D02*
X1304670Y468130D01*
X912023Y468130D01*
D11*
X1357300Y458435D03*
X1515190Y154428D03*
X1531118Y68558D03*
X192515Y618403D03*
X874628Y499985D03*
X912023Y468130D03*
D10*
X1352453Y506910D02*
X1641918Y217445D01*
X1546353Y121188D02*
X1546353Y70635D01*
X1550161Y124996D02*
X1641918Y216753D01*
X1550161Y124996D02*
X1546353Y121188D01*
X1641918Y216753D02*
X1641918Y217445D01*
X1549815Y125343D02*
X1550161Y124996D01*
X887093Y514528D02*
X887093Y576160D01*
X880168Y673110D02*
X222985Y673110D01*
X880168Y673110D02*
X904405Y648873D01*
X904405Y594165D01*
X887093Y576853D01*
X887093Y576160D01*
X918948Y506910D02*
X1352453Y506910D01*
D11*
X1352453Y506910D03*
X1641918Y217445D03*
X1546353Y70635D03*
X1549815Y125343D03*
X887093Y576160D03*
X887093Y514528D03*
X222985Y673110D03*
X918948Y506910D03*
D10*
X343480Y1021438D02*
X281848Y1083070D01*
X164123Y841388D02*
X164123Y574775D01*
X164123Y841388D02*
X343480Y1020745D01*
X343480Y1021438D01*
D11*
X343480Y1021438D03*
X281848Y1083070D03*
X164123Y574775D03*
D10*
X871858Y490983D02*
X871858Y481288D01*
X871858Y490983D02*
X879475Y498600D01*
X879475Y567158D01*
X865279Y581354D02*
X855238Y591395D01*
X865279Y581354D02*
X879475Y567158D01*
X274230Y466053D02*
X177973Y466053D01*
X274230Y466053D02*
X288080Y452203D01*
X364255Y452203D01*
X440430Y528378D01*
X833770Y528378D01*
X871165Y490983D01*
X871858Y490983D01*
X878783Y665493D02*
X878783Y668263D01*
X878783Y665493D02*
X901635Y642640D01*
X901635Y617710D01*
X865279Y581354D01*
D11*
X871858Y481288D03*
X855238Y591395D03*
X177973Y466053D03*
X878783Y668263D03*
D10*
X873243Y623250D02*
X310933Y623250D01*
X873243Y623250D02*
X887093Y609400D01*
D11*
X310933Y623250D03*
X887093Y609400D03*
D10*
X246530Y761750D02*
X246530Y888478D01*
X447355Y1089303D01*
D11*
X246530Y761750D03*
X447355Y1089303D03*
D10*
X758980Y144040D02*
X826845Y144040D01*
X758980Y144040D02*
X707735Y195285D01*
X668955Y195285D01*
X665493Y198748D01*
X665493Y254148D01*
X673803Y262458D01*
D11*
X826845Y144040D03*
X673803Y262458D03*
D10*
X848313Y192515D02*
X855930Y192515D01*
X848313Y192515D02*
X820613Y220215D01*
X731280Y220215D01*
X711198Y240298D01*
X691115Y240298D01*
X686960Y244453D01*
X686960Y276308D01*
D11*
X855930Y192515D03*
X686960Y276308D03*
D10*
X779063Y180050D02*
X803300Y180050D01*
X824768Y201518D01*
D11*
X779063Y180050D03*
X824768Y201518D03*
D10*
X495138Y361485D02*
X495138Y385030D01*
D11*
X495138Y361485D03*
X495138Y385030D03*
D10*
X716045Y229218D02*
X716045Y211213D01*
D11*
X716045Y211213D03*
X716045Y229218D03*
D10*
X112185Y997893D02*
X85870Y1024208D01*
D11*
X85870Y1024208D03*
X112185Y997893D03*
D10*
X552615Y400265D02*
X552615Y361485D01*
D11*
X552615Y361485D03*
X552615Y400265D03*
D10*
X543613Y400265D02*
X543613Y361485D01*
D11*
X543613Y361485D03*
X543613Y400265D03*
D12*
X144000Y756000D03*
X126000Y756000D03*
X108000Y756000D03*
X90000Y756000D03*
X72000Y756000D03*
X54000Y756000D03*
X144000Y738000D03*
X126000Y738000D03*
X108000Y738000D03*
X90000Y738000D03*
X72000Y738000D03*
X54000Y738000D03*
X144000Y720000D03*
X126000Y720000D03*
X108000Y720000D03*
X90000Y720000D03*
X72000Y720000D03*
X54000Y720000D03*
X144000Y702000D03*
X126000Y702000D03*
X108000Y702000D03*
X90000Y702000D03*
X54000Y684000D03*
X72000Y684000D03*
X90000Y684000D03*
X108000Y684000D03*
X126000Y684000D03*
X144000Y684000D03*
X54000Y702000D03*
X72000Y702000D03*
M02*
