G04 EAGLE Gerber RS-274X export*
G75*
%MOMM*%
%FSLAX34Y34*%
%LPD*%
%INSoldermask Bottom*%
%IPPOS*%
%AMOC8*
5,1,8,0,0,1.08239X$1,22.5*%
G01*
G04 Define Apertures*
%ADD10C,0.853200*%
%ADD11C,0.655600*%
%ADD12C,0.705600*%
D10*
X1654587Y517367D03*
X1654587Y575167D03*
D11*
X484058Y1067835D03*
X484058Y1080993D03*
X96950Y1020053D03*
X78253Y1038750D03*
X157198Y567158D03*
X83100Y641255D03*
X1517268Y460513D03*
X1538043Y475748D03*
X1515190Y511758D03*
X1240960Y498600D03*
X1220185Y493060D03*
X1313673Y498600D03*
X692500Y272845D03*
X692500Y245145D03*
X734743Y229910D03*
X801915Y241683D03*
X1162708Y376720D03*
X1164785Y351098D03*
X692500Y347635D03*
X1180020Y376720D03*
X355253Y439045D03*
X479903Y400265D03*
X648180Y178665D03*
X624635Y132960D03*
X834463Y147503D03*
X670340Y200133D03*
X1634300Y543613D03*
X1634300Y553308D03*
X1516575Y500678D03*
X1628068Y544305D03*
X1484720Y520068D03*
X1634300Y559540D03*
X1490260Y510373D03*
X1225725Y646103D03*
X890555Y646103D03*
X240298Y470900D03*
X1478488Y495138D03*
X1202180Y663415D03*
X445970Y613555D03*
X289465Y457050D03*
X697348Y251378D03*
X772138Y324168D03*
X845543Y241683D03*
X771445Y225063D03*
X784603Y211213D03*
X801915Y213983D03*
X794990Y343480D03*
X853853Y182820D03*
X695963Y206365D03*
X828923Y158583D03*
X48475Y22160D03*
X76175Y510373D03*
X749978Y146810D03*
X524915Y27008D03*
X123265Y563695D03*
X192515Y40165D03*
X819228Y161353D03*
X831000Y1067143D03*
X137808Y443893D03*
X681420Y151658D03*
X226448Y434198D03*
X63710Y351790D03*
X806070Y161353D03*
X443200Y520760D03*
X39473Y808148D03*
X173818Y544305D03*
X45013Y343480D03*
X144040Y442508D03*
X117725Y415500D03*
X703580Y156505D03*
X443200Y508295D03*
X189053Y443893D03*
X58863Y326168D03*
X782525Y184898D03*
X871858Y227833D03*
X784603Y193208D03*
X804685Y201518D03*
X1182098Y365640D03*
X1193870Y381568D03*
X1303285Y463283D03*
X1209105Y403035D03*
X168970Y579623D03*
X168970Y773523D03*
X235450Y537380D03*
X94180Y617710D03*
X39473Y938338D03*
X31163Y283925D03*
X1178635Y488213D03*
X1247193Y488213D03*
X241683Y729895D03*
X599705Y1087918D03*
X118418Y552615D03*
X51938Y356638D03*
X123265Y569928D03*
X36010Y365640D03*
X241683Y650950D03*
X799838Y650950D03*
X228525Y641255D03*
X896788Y641255D03*
X1148165Y389878D03*
X1499955Y120495D03*
X1357300Y458435D03*
X1515190Y154428D03*
X1531118Y68558D03*
X192515Y618403D03*
X874628Y499985D03*
X912023Y468130D03*
X1352453Y506910D03*
X1641918Y217445D03*
X1546353Y70635D03*
X1549815Y125343D03*
X887093Y576160D03*
X887093Y514528D03*
X222985Y673110D03*
X918948Y506910D03*
X343480Y1021438D03*
X281848Y1083070D03*
X164123Y574775D03*
X871858Y481288D03*
X855238Y591395D03*
X177973Y466053D03*
X878783Y668263D03*
X310933Y623250D03*
X887093Y609400D03*
X246530Y761750D03*
X447355Y1089303D03*
X826845Y144040D03*
X673803Y262458D03*
X855930Y192515D03*
X686960Y276308D03*
X779063Y180050D03*
X824768Y201518D03*
X495138Y361485D03*
X495138Y385030D03*
X716045Y211213D03*
X716045Y229218D03*
X85870Y1024208D03*
X112185Y997893D03*
X552615Y361485D03*
X552615Y400265D03*
X543613Y361485D03*
X543613Y400265D03*
D12*
X144000Y756000D03*
X126000Y756000D03*
X108000Y756000D03*
X90000Y756000D03*
X72000Y756000D03*
X54000Y756000D03*
X144000Y738000D03*
X126000Y738000D03*
X108000Y738000D03*
X90000Y738000D03*
X72000Y738000D03*
X54000Y738000D03*
X144000Y720000D03*
X126000Y720000D03*
X108000Y720000D03*
X90000Y720000D03*
X72000Y720000D03*
X54000Y720000D03*
X144000Y702000D03*
X126000Y702000D03*
X108000Y702000D03*
X90000Y702000D03*
X54000Y684000D03*
X72000Y684000D03*
X90000Y684000D03*
X108000Y684000D03*
X126000Y684000D03*
X144000Y684000D03*
X54000Y702000D03*
X72000Y702000D03*
M02*
