G04 EAGLE Gerber RS-274X export*
G75*
%MOMM*%
%FSLAX34Y34*%
%LPD*%
%INSoldermask Top*%
%IPPOS*%
%AMOC8*
5,1,8,0,0,1.08239X$1,22.5*%
G01*
G04 Define Apertures*
%ADD10R,1.603200X1.253200*%
%ADD11R,1.103200X0.903200*%
%ADD12R,1.603200X1.603200*%
%ADD13R,0.903200X1.103200*%
%ADD14R,2.403200X2.203200*%
%ADD15R,1.003200X1.003200*%
%ADD16R,1.403200X0.803200*%
%ADD17R,1.173200X1.143200*%
%ADD18R,1.143200X1.173200*%
%ADD19R,1.103200X1.003200*%
%ADD20R,1.353200X1.003200*%
%ADD21R,1.003200X1.103200*%
%ADD22R,1.103200X0.803200*%
%ADD23R,0.503200X1.003200*%
%ADD24R,0.603200X1.003200*%
%ADD25R,1.353200X0.503200*%
%ADD26R,2.203200X2.383200*%
%ADD27C,0.853200*%
%ADD28R,2.203200X1.403200*%
%ADD29R,1.553200X0.803200*%
%ADD30R,1.403200X2.003200*%
%ADD31R,2.103200X1.603200*%
%ADD32R,1.703200X0.903200*%
%ADD33R,5.029200X1.092200*%
%ADD34R,1.403200X0.753200*%
%ADD35R,1.703200X3.803200*%
%ADD36R,0.703200X1.253200*%
%ADD37C,0.330503*%
%ADD38R,0.152400X1.828800*%
%ADD39R,1.371600X1.803400*%
%ADD40C,0.315166*%
%ADD41R,3.603200X4.503200*%
%ADD42R,1.103200X1.703200*%
%ADD43C,0.349006*%
%ADD44C,0.276759*%
%ADD45C,0.269722*%
%ADD46R,1.103200X1.503200*%
%ADD47C,0.655600*%
%ADD48C,0.705600*%
D10*
X507500Y1096844D03*
X472500Y1096844D03*
X472500Y1081844D03*
X507500Y1081844D03*
D11*
X1508909Y62278D03*
X1508909Y75278D03*
X674917Y1092042D03*
X674917Y1079042D03*
D12*
X939444Y511601D03*
X939444Y533601D03*
D13*
X1198736Y484621D03*
X1211736Y484621D03*
X1162311Y359223D03*
X1175311Y359223D03*
D11*
X1298168Y384095D03*
X1298168Y397095D03*
X1494248Y62278D03*
X1494248Y75278D03*
X1288170Y501270D03*
X1288170Y514270D03*
D14*
X1266058Y391708D03*
X1266058Y361708D03*
D11*
X916855Y337251D03*
X916855Y350251D03*
D13*
X1531404Y468744D03*
X1518404Y468744D03*
D11*
X273618Y1091370D03*
X273618Y1078370D03*
D13*
X1518698Y482654D03*
X1531698Y482654D03*
D11*
X522240Y1093379D03*
X522240Y1080379D03*
D13*
X625424Y141354D03*
X638424Y141354D03*
D11*
X911412Y512517D03*
X911412Y525517D03*
X60620Y1008915D03*
X60620Y1021915D03*
D10*
X658158Y1095840D03*
X623158Y1095840D03*
X623158Y1080840D03*
X658158Y1080840D03*
D15*
X1214373Y501622D03*
X1199373Y501622D03*
D11*
X500916Y1003875D03*
X500916Y1016875D03*
D16*
X1505008Y519476D03*
X1505008Y509976D03*
X1505008Y500476D03*
X1530008Y500476D03*
X1530008Y509976D03*
X1530008Y519476D03*
D17*
X700116Y238117D03*
X715116Y238117D03*
X128095Y989250D03*
X113095Y989250D03*
D18*
X488000Y392500D03*
X488000Y407500D03*
D19*
X1171481Y378937D03*
X1171481Y399937D03*
D20*
X901209Y336483D03*
X866209Y336483D03*
X864291Y295455D03*
X899291Y295455D03*
X794403Y363554D03*
X759403Y363554D03*
D18*
X560000Y392500D03*
X560000Y407500D03*
D21*
X864184Y656687D03*
X885184Y656687D03*
D18*
X536000Y392500D03*
X536000Y407500D03*
X363438Y476443D03*
X363438Y461443D03*
D13*
X680852Y264655D03*
X693852Y264655D03*
D11*
X783679Y221231D03*
X783679Y234231D03*
X763355Y221231D03*
X763355Y234231D03*
X743030Y221231D03*
X743030Y234231D03*
D13*
X680076Y283297D03*
X693076Y283297D03*
D11*
X885304Y221231D03*
X885304Y234231D03*
X864979Y234231D03*
X864979Y221231D03*
X844654Y221231D03*
X844654Y234231D03*
X824329Y221231D03*
X824329Y234231D03*
X804004Y221231D03*
X804004Y234231D03*
D22*
X454350Y1021332D03*
X454350Y1011832D03*
X454350Y1002332D03*
X482350Y1002332D03*
X482350Y1021332D03*
X1202459Y396279D03*
X1202459Y386779D03*
X1202459Y377279D03*
X1230459Y377279D03*
X1230459Y396279D03*
D23*
X868790Y168892D03*
X863790Y168892D03*
X858790Y168892D03*
X853790Y168892D03*
X848790Y168892D03*
X843790Y168892D03*
X838790Y168892D03*
X833790Y168892D03*
X828790Y168892D03*
X823790Y168892D03*
X818790Y168892D03*
X813790Y168892D03*
X808790Y168892D03*
X803790Y168892D03*
X798790Y168892D03*
X793790Y168892D03*
X788790Y168892D03*
X783790Y168892D03*
X778790Y168892D03*
X773790Y168892D03*
X768790Y168892D03*
X763790Y168892D03*
X758790Y168892D03*
X753790Y168892D03*
D24*
X878790Y143892D03*
X743790Y143892D03*
D25*
X1643837Y512767D03*
X1643837Y520767D03*
X1643837Y533767D03*
X1643837Y543767D03*
X1643837Y548767D03*
X1643837Y558767D03*
X1643837Y571767D03*
X1643837Y579767D03*
X1643837Y576767D03*
X1643837Y568767D03*
X1643837Y563767D03*
X1643837Y553767D03*
X1643837Y538767D03*
X1643837Y528767D03*
X1643837Y523767D03*
X1643837Y515767D03*
D26*
X1688887Y495167D03*
X1688887Y597367D03*
X1649587Y495167D03*
X1649587Y597367D03*
D27*
X1654587Y517367D03*
X1654587Y575167D03*
D28*
X1689078Y169134D03*
X1689078Y225134D03*
D29*
X1652328Y182134D03*
X1652328Y192134D03*
X1652328Y202134D03*
X1652328Y212134D03*
D30*
X155202Y858421D03*
X155202Y915421D03*
D31*
X12702Y828421D03*
X22702Y959921D03*
D32*
X51202Y876421D03*
X55202Y887421D03*
X51202Y898421D03*
X49202Y909421D03*
X51202Y920421D03*
X49202Y931421D03*
X51202Y942421D03*
X51202Y953421D03*
D30*
X155202Y886921D03*
X155202Y943921D03*
D33*
X777216Y334811D03*
X777216Y289091D03*
D34*
X1256856Y483589D03*
X1256856Y493089D03*
X1256856Y502589D03*
X1230854Y502589D03*
X1230854Y483589D03*
D35*
X1483713Y444296D03*
X1528713Y444296D03*
D21*
X1298326Y452192D03*
X1317326Y452192D03*
X1307826Y473192D03*
D19*
X715858Y283033D03*
X715858Y264033D03*
X736858Y273533D03*
D36*
X625483Y181210D03*
X638483Y181210D03*
X631983Y202210D03*
D11*
X194438Y410110D03*
X194438Y423110D03*
X1523922Y62278D03*
X1523922Y75278D03*
D13*
X865732Y488264D03*
X878732Y488264D03*
D11*
X536000Y354500D03*
X536000Y367500D03*
D13*
X1164224Y502481D03*
X1177224Y502481D03*
D11*
X1155854Y383486D03*
X1155854Y396486D03*
X663040Y110733D03*
X663040Y123733D03*
X1537915Y62278D03*
X1537915Y75278D03*
X912444Y601458D03*
X912444Y614458D03*
X1546110Y534505D03*
X1546110Y547505D03*
X1469538Y520007D03*
X1469538Y533007D03*
X1208425Y453270D03*
X1208425Y466270D03*
X663204Y193884D03*
X663204Y206884D03*
X679038Y194033D03*
X679038Y207033D03*
X348257Y463105D03*
X348257Y476105D03*
D13*
X680768Y172895D03*
X667768Y172895D03*
D11*
X77757Y1021848D03*
X77757Y1008848D03*
X488000Y354500D03*
X488000Y367500D03*
X560000Y354500D03*
X560000Y367500D03*
D10*
X257928Y1095672D03*
X222928Y1095672D03*
X222928Y1080672D03*
X257928Y1080672D03*
D11*
X456008Y1080326D03*
X456008Y1093326D03*
D13*
X872861Y636472D03*
X885861Y636472D03*
D11*
X607857Y1078188D03*
X607857Y1091188D03*
D13*
X753617Y262811D03*
X766617Y262811D03*
D11*
X207836Y1078441D03*
X207836Y1091441D03*
D37*
X1507864Y149568D02*
X1507864Y140680D01*
X1504136Y140680D01*
X1504136Y149568D01*
X1507864Y149568D01*
X1507864Y143820D02*
X1504136Y143820D01*
X1504136Y146960D02*
X1507864Y146960D01*
X1515864Y149568D02*
X1515864Y140680D01*
X1512136Y140680D01*
X1512136Y149568D01*
X1515864Y149568D01*
X1515864Y143820D02*
X1512136Y143820D01*
X1512136Y146960D02*
X1515864Y146960D01*
X1523864Y149568D02*
X1523864Y140680D01*
X1520136Y140680D01*
X1520136Y149568D01*
X1523864Y149568D01*
X1523864Y143820D02*
X1520136Y143820D01*
X1520136Y146960D02*
X1523864Y146960D01*
X1531864Y149568D02*
X1531864Y140680D01*
X1528136Y140680D01*
X1528136Y149568D01*
X1531864Y149568D01*
X1531864Y143820D02*
X1528136Y143820D01*
X1528136Y146960D02*
X1531864Y146960D01*
X1532064Y120408D02*
X1532064Y111520D01*
X1528336Y111520D01*
X1528336Y120408D01*
X1532064Y120408D01*
X1532064Y114660D02*
X1528336Y114660D01*
X1528336Y117800D02*
X1532064Y117800D01*
X1523864Y120408D02*
X1523864Y111520D01*
X1520136Y111520D01*
X1520136Y120408D01*
X1523864Y120408D01*
X1523864Y114660D02*
X1520136Y114660D01*
X1520136Y117800D02*
X1523864Y117800D01*
X1515864Y120408D02*
X1515864Y111520D01*
X1512136Y111520D01*
X1512136Y120408D01*
X1515864Y120408D01*
X1515864Y114660D02*
X1512136Y114660D01*
X1512136Y117800D02*
X1515864Y117800D01*
X1507864Y120408D02*
X1507864Y111520D01*
X1504136Y111520D01*
X1504136Y120408D01*
X1507864Y120408D01*
X1507864Y114660D02*
X1504136Y114660D01*
X1504136Y117800D02*
X1507864Y117800D01*
D38*
X630300Y119379D03*
D39*
X622680Y119379D03*
X637920Y119379D03*
D40*
X367075Y550760D02*
X358795Y550760D01*
X358795Y554040D01*
X367075Y554040D01*
X367075Y550760D01*
X367075Y553754D02*
X358795Y553754D01*
X358795Y538060D02*
X367075Y538060D01*
X358795Y538060D02*
X358795Y541340D01*
X367075Y541340D01*
X367075Y538060D01*
X367075Y541054D02*
X358795Y541054D01*
X358795Y525360D02*
X367075Y525360D01*
X358795Y525360D02*
X358795Y528640D01*
X367075Y528640D01*
X367075Y525360D01*
X367075Y528354D02*
X358795Y528354D01*
X358795Y512660D02*
X367075Y512660D01*
X358795Y512660D02*
X358795Y515940D01*
X367075Y515940D01*
X367075Y512660D01*
X367075Y515654D02*
X358795Y515654D01*
X436695Y512660D02*
X444975Y512660D01*
X436695Y512660D02*
X436695Y515940D01*
X444975Y515940D01*
X444975Y512660D01*
X444975Y515654D02*
X436695Y515654D01*
X436695Y525360D02*
X444975Y525360D01*
X436695Y525360D02*
X436695Y528640D01*
X444975Y528640D01*
X444975Y525360D01*
X444975Y528354D02*
X436695Y528354D01*
X436695Y538060D02*
X444975Y538060D01*
X436695Y538060D02*
X436695Y541340D01*
X444975Y541340D01*
X444975Y538060D01*
X444975Y541054D02*
X436695Y541054D01*
X436695Y550760D02*
X444975Y550760D01*
X436695Y550760D02*
X436695Y554040D01*
X444975Y554040D01*
X444975Y550760D01*
X444975Y553754D02*
X436695Y553754D01*
D41*
X401885Y533350D03*
D42*
X80959Y454912D03*
X93659Y454912D03*
X106359Y454912D03*
X119059Y454912D03*
X131759Y454912D03*
X144459Y454912D03*
X157159Y454912D03*
X169859Y454912D03*
X182559Y454912D03*
X195259Y454912D03*
X207959Y454912D03*
X220659Y454912D03*
X233359Y454912D03*
X246059Y454912D03*
X246059Y629912D03*
X233359Y629912D03*
X220659Y629912D03*
X207959Y629912D03*
X195259Y629912D03*
X182559Y629912D03*
X169859Y629912D03*
X157159Y629912D03*
X144459Y629912D03*
X131759Y629912D03*
X119059Y629912D03*
X106359Y629912D03*
X93659Y629912D03*
X80959Y629912D03*
D15*
X138159Y527362D03*
X125659Y514862D03*
X125659Y527362D03*
X125659Y539862D03*
X138159Y514862D03*
X138159Y539862D03*
X150659Y514862D03*
X150659Y527362D03*
X150659Y539862D03*
D43*
X878156Y595722D02*
X878156Y614764D01*
X882598Y614764D01*
X882598Y595722D01*
X878156Y595722D01*
X878156Y599037D02*
X882598Y599037D01*
X882598Y602352D02*
X878156Y602352D01*
X878156Y605667D02*
X882598Y605667D01*
X882598Y608982D02*
X878156Y608982D01*
X878156Y612297D02*
X882598Y612297D01*
X865456Y614764D02*
X865456Y595722D01*
X865456Y614764D02*
X869898Y614764D01*
X869898Y595722D01*
X865456Y595722D01*
X865456Y599037D02*
X869898Y599037D01*
X869898Y602352D02*
X865456Y602352D01*
X865456Y605667D02*
X869898Y605667D01*
X869898Y608982D02*
X865456Y608982D01*
X865456Y612297D02*
X869898Y612297D01*
X852756Y614764D02*
X852756Y595722D01*
X852756Y614764D02*
X857198Y614764D01*
X857198Y595722D01*
X852756Y595722D01*
X852756Y599037D02*
X857198Y599037D01*
X857198Y602352D02*
X852756Y602352D01*
X852756Y605667D02*
X857198Y605667D01*
X857198Y608982D02*
X852756Y608982D01*
X852756Y612297D02*
X857198Y612297D01*
X840056Y614764D02*
X840056Y595722D01*
X840056Y614764D02*
X844498Y614764D01*
X844498Y595722D01*
X840056Y595722D01*
X840056Y599037D02*
X844498Y599037D01*
X844498Y602352D02*
X840056Y602352D01*
X840056Y605667D02*
X844498Y605667D01*
X844498Y608982D02*
X840056Y608982D01*
X840056Y612297D02*
X844498Y612297D01*
X827356Y614764D02*
X827356Y595722D01*
X827356Y614764D02*
X831798Y614764D01*
X831798Y595722D01*
X827356Y595722D01*
X827356Y599037D02*
X831798Y599037D01*
X831798Y602352D02*
X827356Y602352D01*
X827356Y605667D02*
X831798Y605667D01*
X831798Y608982D02*
X827356Y608982D01*
X827356Y612297D02*
X831798Y612297D01*
X814656Y614764D02*
X814656Y595722D01*
X814656Y614764D02*
X819098Y614764D01*
X819098Y595722D01*
X814656Y595722D01*
X814656Y599037D02*
X819098Y599037D01*
X819098Y602352D02*
X814656Y602352D01*
X814656Y605667D02*
X819098Y605667D01*
X819098Y608982D02*
X814656Y608982D01*
X814656Y612297D02*
X819098Y612297D01*
X801956Y614764D02*
X801956Y595722D01*
X801956Y614764D02*
X806398Y614764D01*
X806398Y595722D01*
X801956Y595722D01*
X801956Y599037D02*
X806398Y599037D01*
X806398Y602352D02*
X801956Y602352D01*
X801956Y605667D02*
X806398Y605667D01*
X806398Y608982D02*
X801956Y608982D01*
X801956Y612297D02*
X806398Y612297D01*
X789256Y614764D02*
X789256Y595722D01*
X789256Y614764D02*
X793698Y614764D01*
X793698Y595722D01*
X789256Y595722D01*
X789256Y599037D02*
X793698Y599037D01*
X793698Y602352D02*
X789256Y602352D01*
X789256Y605667D02*
X793698Y605667D01*
X793698Y608982D02*
X789256Y608982D01*
X789256Y612297D02*
X793698Y612297D01*
X789256Y521664D02*
X789256Y502622D01*
X789256Y521664D02*
X793698Y521664D01*
X793698Y502622D01*
X789256Y502622D01*
X789256Y505937D02*
X793698Y505937D01*
X793698Y509252D02*
X789256Y509252D01*
X789256Y512567D02*
X793698Y512567D01*
X793698Y515882D02*
X789256Y515882D01*
X789256Y519197D02*
X793698Y519197D01*
X801956Y521664D02*
X801956Y502622D01*
X801956Y521664D02*
X806398Y521664D01*
X806398Y502622D01*
X801956Y502622D01*
X801956Y505937D02*
X806398Y505937D01*
X806398Y509252D02*
X801956Y509252D01*
X801956Y512567D02*
X806398Y512567D01*
X806398Y515882D02*
X801956Y515882D01*
X801956Y519197D02*
X806398Y519197D01*
X814656Y521664D02*
X814656Y502622D01*
X814656Y521664D02*
X819098Y521664D01*
X819098Y502622D01*
X814656Y502622D01*
X814656Y505937D02*
X819098Y505937D01*
X819098Y509252D02*
X814656Y509252D01*
X814656Y512567D02*
X819098Y512567D01*
X819098Y515882D02*
X814656Y515882D01*
X814656Y519197D02*
X819098Y519197D01*
X827356Y521664D02*
X827356Y502622D01*
X827356Y521664D02*
X831798Y521664D01*
X831798Y502622D01*
X827356Y502622D01*
X827356Y505937D02*
X831798Y505937D01*
X831798Y509252D02*
X827356Y509252D01*
X827356Y512567D02*
X831798Y512567D01*
X831798Y515882D02*
X827356Y515882D01*
X827356Y519197D02*
X831798Y519197D01*
X840056Y521664D02*
X840056Y502622D01*
X840056Y521664D02*
X844498Y521664D01*
X844498Y502622D01*
X840056Y502622D01*
X840056Y505937D02*
X844498Y505937D01*
X844498Y509252D02*
X840056Y509252D01*
X840056Y512567D02*
X844498Y512567D01*
X844498Y515882D02*
X840056Y515882D01*
X840056Y519197D02*
X844498Y519197D01*
X852756Y521664D02*
X852756Y502622D01*
X852756Y521664D02*
X857198Y521664D01*
X857198Y502622D01*
X852756Y502622D01*
X852756Y505937D02*
X857198Y505937D01*
X857198Y509252D02*
X852756Y509252D01*
X852756Y512567D02*
X857198Y512567D01*
X857198Y515882D02*
X852756Y515882D01*
X852756Y519197D02*
X857198Y519197D01*
X865456Y521664D02*
X865456Y502622D01*
X865456Y521664D02*
X869898Y521664D01*
X869898Y502622D01*
X865456Y502622D01*
X865456Y505937D02*
X869898Y505937D01*
X869898Y509252D02*
X865456Y509252D01*
X865456Y512567D02*
X869898Y512567D01*
X869898Y515882D02*
X865456Y515882D01*
X865456Y519197D02*
X869898Y519197D01*
X878156Y521664D02*
X878156Y502622D01*
X878156Y521664D02*
X882598Y521664D01*
X882598Y502622D01*
X878156Y502622D01*
X878156Y505937D02*
X882598Y505937D01*
X882598Y509252D02*
X878156Y509252D01*
X878156Y512567D02*
X882598Y512567D01*
X882598Y515882D02*
X878156Y515882D01*
X878156Y519197D02*
X882598Y519197D01*
D44*
X1322067Y523726D02*
X1328951Y523726D01*
X1322067Y523726D02*
X1322067Y525990D01*
X1328951Y525990D01*
X1328951Y523726D01*
X1328941Y518726D02*
X1322077Y518726D01*
X1322077Y520990D01*
X1328941Y520990D01*
X1328941Y518726D01*
X1328941Y513726D02*
X1322077Y513726D01*
X1322077Y515990D01*
X1328941Y515990D01*
X1328941Y513726D01*
X1328941Y508726D02*
X1322077Y508726D01*
X1322077Y510990D01*
X1328941Y510990D01*
X1328941Y508726D01*
D45*
X1341741Y508840D02*
X1348677Y508840D01*
X1341741Y508840D02*
X1341741Y510876D01*
X1348677Y510876D01*
X1348677Y508840D01*
D44*
X1348641Y513726D02*
X1341777Y513726D01*
X1341777Y515990D01*
X1348641Y515990D01*
X1348641Y513726D01*
D45*
X1348677Y518840D02*
X1341741Y518840D01*
X1341741Y520876D01*
X1348677Y520876D01*
X1348677Y518840D01*
X1348677Y523840D02*
X1341741Y523840D01*
X1341741Y525876D01*
X1348677Y525876D01*
X1348677Y523840D01*
D46*
X1335359Y517358D03*
D47*
X484058Y1067835D03*
X484058Y1080993D03*
X96950Y1020053D03*
X78253Y1038750D03*
X157198Y567158D03*
X83100Y641255D03*
X1517268Y460513D03*
X1538043Y475748D03*
X1515190Y511758D03*
X1240960Y498600D03*
X1220185Y493060D03*
X1313673Y498600D03*
X692500Y272845D03*
X692500Y245145D03*
X734743Y229910D03*
X801915Y241683D03*
X1162708Y376720D03*
X1164785Y351098D03*
X692500Y347635D03*
X1180020Y376720D03*
X355253Y439045D03*
X479903Y400265D03*
X648180Y178665D03*
X624635Y132960D03*
X834463Y147503D03*
X670340Y200133D03*
X1634300Y543613D03*
X1634300Y553308D03*
X1516575Y500678D03*
X1628068Y544305D03*
X1484720Y520068D03*
X1634300Y559540D03*
X1490260Y510373D03*
X1225725Y646103D03*
X890555Y646103D03*
X240298Y470900D03*
X1478488Y495138D03*
X1202180Y663415D03*
X445970Y613555D03*
X289465Y457050D03*
X697348Y251378D03*
X772138Y324168D03*
X845543Y241683D03*
X771445Y225063D03*
X784603Y211213D03*
X801915Y213983D03*
X794990Y343480D03*
X853853Y182820D03*
X695963Y206365D03*
X828923Y158583D03*
X48475Y22160D03*
X76175Y510373D03*
X749978Y146810D03*
X524915Y27008D03*
X123265Y563695D03*
X192515Y40165D03*
X819228Y161353D03*
X831000Y1067143D03*
X137808Y443893D03*
X681420Y151658D03*
X226448Y434198D03*
X63710Y351790D03*
X806070Y161353D03*
X443200Y520760D03*
X39473Y808148D03*
X173818Y544305D03*
X45013Y343480D03*
X144040Y442508D03*
X117725Y415500D03*
X703580Y156505D03*
X443200Y508295D03*
X189053Y443893D03*
X58863Y326168D03*
X782525Y184898D03*
X871858Y227833D03*
X784603Y193208D03*
X804685Y201518D03*
X1182098Y365640D03*
X1193870Y381568D03*
X1303285Y463283D03*
X1209105Y403035D03*
X168970Y579623D03*
X168970Y773523D03*
X235450Y537380D03*
X94180Y617710D03*
X39473Y938338D03*
X31163Y283925D03*
X1178635Y488213D03*
X1247193Y488213D03*
X241683Y729895D03*
X599705Y1087918D03*
X118418Y552615D03*
X51938Y356638D03*
X123265Y569928D03*
X36010Y365640D03*
X241683Y650950D03*
X799838Y650950D03*
X228525Y641255D03*
X896788Y641255D03*
X1148165Y389878D03*
X1499955Y120495D03*
X1357300Y458435D03*
X1515190Y154428D03*
X1531118Y68558D03*
X192515Y618403D03*
X874628Y499985D03*
X912023Y468130D03*
X1352453Y506910D03*
X1641918Y217445D03*
X1546353Y70635D03*
X1549815Y125343D03*
X887093Y576160D03*
X887093Y514528D03*
X222985Y673110D03*
X918948Y506910D03*
X343480Y1021438D03*
X281848Y1083070D03*
X164123Y574775D03*
X871858Y481288D03*
X855238Y591395D03*
X177973Y466053D03*
X878783Y668263D03*
X310933Y623250D03*
X887093Y609400D03*
X246530Y761750D03*
X447355Y1089303D03*
X826845Y144040D03*
X673803Y262458D03*
X855930Y192515D03*
X686960Y276308D03*
X779063Y180050D03*
X824768Y201518D03*
X495138Y361485D03*
X495138Y385030D03*
X716045Y211213D03*
X716045Y229218D03*
X85870Y1024208D03*
X112185Y997893D03*
X552615Y361485D03*
X552615Y400265D03*
X543613Y361485D03*
X543613Y400265D03*
D48*
X144000Y756000D03*
X126000Y756000D03*
X108000Y756000D03*
X90000Y756000D03*
X72000Y756000D03*
X54000Y756000D03*
X144000Y738000D03*
X126000Y738000D03*
X108000Y738000D03*
X90000Y738000D03*
X72000Y738000D03*
X54000Y738000D03*
X144000Y720000D03*
X126000Y720000D03*
X108000Y720000D03*
X90000Y720000D03*
X72000Y720000D03*
X54000Y720000D03*
X144000Y702000D03*
X126000Y702000D03*
X108000Y702000D03*
X90000Y702000D03*
X54000Y684000D03*
X72000Y684000D03*
X90000Y684000D03*
X108000Y684000D03*
X126000Y684000D03*
X144000Y684000D03*
X54000Y702000D03*
X72000Y702000D03*
M02*
